<svg width="28" height="28" viewBox="0 0 28 28" fill="none" xmlns="http://www.w3.org/2000/svg">
<g id="Group">
<g id="g2583">
<g id="g2589">
<g id="Clip path group">
<g id="g2591">
<g id="g2625">
<path id="Subtract" fill-rule="evenodd" clip-rule="evenodd" d="M21.7953 23.5948L21.7956 23.6153C21.7956 25.812 20.0148 27.5928 17.8181 27.5928H4.37784C2.18116 27.5928 0.400391 25.812 0.400391 23.6153V4.38371C0.400391 2.18703 2.18116 0.406263 4.37784 0.406263H23.9823L23.9919 0.40625L23.9961 0.406263H24.0465C24.0682 0.406263 24.0896 0.407244 24.1107 0.409164C26.0469 0.465532 27.5991 2.05281 27.5991 4.00262V7.49928C27.5991 9.69596 25.8184 11.4767 23.6217 11.4767H21.7956V23.5743L21.7953 23.5948ZM23.9844 1.80493H24.0041V1.80628C25.2171 1.80628 26.2005 2.78962 26.2005 4.00262V7.49928C26.2005 8.9235 25.0459 10.0781 23.6217 10.0781H21.7956V4.00125C21.7956 2.79074 22.7749 1.80896 23.9844 1.80493ZM6.61037 21.3059L8.44061 18.707C8.66299 18.3912 9.09926 18.3155 9.41505 18.5379C9.73083 18.7603 9.80654 19.1966 9.58415 19.5123L7.66902 22.2318C7.66159 22.2423 7.65386 22.2527 7.64585 22.2628C7.16738 22.868 6.27417 22.9306 5.71778 22.3921L5.70724 22.3816L4.47243 21.1346C4.20068 20.8601 4.20286 20.4173 4.47731 20.1456C4.75176 19.8738 5.19455 19.876 5.4663 20.1505L6.61037 21.3059ZM12.3998 21.8338C12.0135 21.8338 11.7004 21.5207 11.7004 21.1344C11.7004 20.7482 12.0135 20.4351 12.3998 20.4351H16.1696C16.5558 20.4351 16.8689 20.7482 16.8689 21.1344C16.8689 21.5207 16.5558 21.8338 16.1696 21.8338H12.3998ZM6.61037 14.7496L8.44061 12.1508C8.66299 11.835 9.09926 11.7593 9.41505 11.9817C9.73083 12.2041 9.80654 12.6403 9.58415 12.9561L7.66902 15.6755C7.66159 15.6861 7.65386 15.6964 7.64585 15.7066C7.16738 16.3118 6.27417 16.3744 5.71778 15.8358L5.70724 15.8254L4.47243 14.5784C4.20068 14.3039 4.20286 13.8611 4.47731 13.5894C4.75176 13.3176 5.19455 13.3198 5.4663 13.5942L6.61037 14.7496ZM12.3998 15.2775C12.0135 15.2775 11.7004 14.9644 11.7004 14.5782C11.7004 14.192 12.0135 13.8789 12.3998 13.8789H16.1696C16.5558 13.8789 16.8689 14.192 16.8689 14.5782C16.8689 14.9644 16.5558 15.2775 16.1696 15.2775H12.3998ZM6.61037 8.13559L8.44061 5.53672C8.66299 5.22094 9.09926 5.14523 9.41505 5.36761C9.73083 5.59 9.80654 6.02627 9.58415 6.34205L7.66902 9.06147C7.66159 9.07203 7.65386 9.08237 7.64585 9.0925C7.16738 9.69774 6.27417 9.76034 5.71778 9.22176L5.70724 9.21134L4.47243 7.96429C4.20068 7.68984 4.20286 7.24706 4.47731 6.9753C4.75176 6.70354 5.19455 6.70573 5.4663 6.98018L6.61037 8.13559ZM11.7004 7.96413C11.7004 8.35036 12.0135 8.66347 12.3998 8.66347H16.1696C16.5558 8.66347 16.8689 8.35036 16.8689 7.96413C16.8689 7.5779 16.5558 7.2648 16.1696 7.2648H12.3998C12.0135 7.2648 11.7004 7.5779 11.7004 7.96413Z" fill="white"/>
</g>
</g>
</g>
</g>
</g>
</g>
</svg>
