<svg width="376" height="249" viewBox="0 0 376 249" fill="none" xmlns="http://www.w3.org/2000/svg">
<g clip-path="url(#clip0_1395_17037)">
<path d="M0.570312 249C0.570312 243.036 7.14054 243.036 7.14054 237.073C7.14054 231.109 0.570312 231.109 0.570311 225.145C0.570311 219.182 7.14054 219.182 7.14054 213.218C7.14054 207.254 0.570311 207.254 0.57031 201.291C0.57031 195.327 7.14054 195.324 7.14054 189.36C7.14054 183.396 0.57031 183.397 0.570309 177.433C0.570309 171.469 7.14054 171.469 7.14054 165.502C7.14054 159.536 0.570309 159.539 0.570308 153.575C0.570308 147.611 7.14054 147.611 7.14054 141.648C7.14054 135.684 0.570308 135.684 0.570307 129.72C0.570307 123.757 7.14054 123.754 7.14054 117.79C7.14054 111.826 0.570307 111.826 0.570306 105.863C0.570306 99.8989 7.14054 99.8989 7.14054 93.9352C7.14053 87.9715 0.570305 87.9715 0.570305 82.0078C0.570305 76.0442 7.14053 76.0442 7.14053 70.0805C7.14053 64.1168 0.570304 64.1168 0.570304 58.1531C0.570304 52.1895 7.14053 52.1895 7.14053 46.2258C7.14053 40.2621 0.570303 40.2621 0.570303 34.2984C0.570303 28.3347 7.14053 28.3317 7.14053 22.368C7.14053 16.4043 0.570302 16.4043 0.570302 10.4407C0.570302 4.47699 7.14053 4.47698 7.14053 -1.48974C7.14053 -7.45646 0.570301 -7.45341 0.570301 -13.4171C0.570301 -19.3808 7.14053 -19.3808 7.14053 -25.3444C7.14053 -31.3081 0.5703 -31.3112 0.5703 -37.2748C0.5703 -43.2385 7.14053 -43.2385 7.14053 -49.2022C7.14053 -55.1659 0.570299 -55.1689 0.570299 -61.1326C0.570299 -67.0963 7.14053 -67.0963 7.14053 -73.063C7.14053 -79.0297 0.570298 -79.0267 0.570298 -84.9904C0.570298 -90.954 7.14053 -90.9541 7.14053 -96.9178C7.14053 -102.881 0.570297 -102.884 0.570297 -108.848C0.570297 -114.812 7.14053 -114.815 7.14053 -120.779C7.14053 -126.742 0.570296 -126.742 0.570296 -132.709C0.570296 -138.676 7.14052 -138.673 7.14052 -144.639C7.14052 -150.606 0.570295 -150.606 0.570295 -156.57" stroke="#FF9140" stroke-width="0.5" stroke-miterlimit="10"/>
<path d="M9.14062 249C9.14062 243.036 15.7109 243.036 15.7109 237.073C15.7109 231.109 9.14062 231.109 9.14062 225.145C9.14062 219.182 15.7109 219.182 15.7109 213.218C15.7109 207.254 9.14062 207.254 9.14062 201.291C9.14062 195.327 15.7109 195.324 15.7109 189.36C15.7109 183.396 9.14062 183.397 9.14062 177.433C9.14062 171.469 15.7109 171.469 15.7109 165.502C15.7109 159.536 9.14062 159.539 9.14062 153.575C9.14062 147.611 15.7109 147.611 15.7109 141.648C15.7108 135.684 9.14062 135.684 9.14062 129.72C9.14062 123.757 15.7108 123.754 15.7108 117.79C15.7108 111.826 9.14062 111.826 9.14062 105.863C9.14062 99.8989 15.7108 99.8989 15.7108 93.9352C15.7108 87.9715 9.14062 87.9715 9.14062 82.0079C9.14062 76.0442 15.7108 76.0442 15.7108 70.0805C15.7108 64.1168 9.14062 64.1168 9.14062 58.1531C9.14062 52.1895 15.7108 52.1895 15.7108 46.2258C15.7108 40.2621 9.14062 40.2621 9.14062 34.2984C9.14062 28.3348 15.7108 28.3317 15.7108 22.368C15.7108 16.4044 9.14061 16.4044 9.14061 10.4407C9.14061 4.477 15.7108 4.477 15.7108 -1.48972C15.7108 -7.45644 9.14061 -7.4534 9.14061 -13.4171C9.14061 -19.3808 15.7108 -19.3808 15.7108 -25.3444C15.7108 -31.3081 9.14061 -31.3111 9.14061 -37.2748C9.14061 -43.2385 15.7108 -43.2385 15.7108 -49.2022C15.7108 -55.1659 9.14061 -55.1689 9.14061 -61.1326C9.14061 -67.0963 15.7108 -67.0963 15.7108 -73.063C15.7108 -79.0297 9.14061 -79.0267 9.14061 -84.9903C9.14061 -90.954 15.7108 -90.9541 15.7108 -96.9177C15.7108 -102.881 9.14061 -102.884 9.14061 -108.848C9.14061 -114.812 15.7108 -114.815 15.7108 -120.779C15.7108 -126.742 9.14061 -126.742 9.14061 -132.709C9.14061 -138.676 15.7108 -138.673 15.7108 -144.639C15.7108 -150.606 9.14061 -150.606 9.14061 -156.57" stroke="#FF9140" stroke-width="0.5" stroke-miterlimit="10"/>
<path d="M17.7104 249C17.7104 243.036 24.2807 243.036 24.2807 237.073C24.2807 231.109 17.7104 231.109 17.7104 225.145C17.7104 219.182 24.2807 219.182 24.2807 213.218C24.2807 207.254 17.7104 207.254 17.7104 201.291C17.7104 195.327 24.2807 195.324 24.2807 189.36C24.2807 183.396 17.7104 183.397 17.7104 177.433C17.7104 171.469 24.2807 171.469 24.2807 165.502C24.2807 159.536 17.7104 159.539 17.7104 153.575C17.7104 147.611 24.2807 147.611 24.2807 141.648C24.2807 135.684 17.7104 135.684 17.7104 129.72C17.7104 123.757 24.2807 123.754 24.2807 117.79C24.2807 111.826 17.7104 111.826 17.7104 105.863C17.7104 99.8989 24.2807 99.8989 24.2807 93.9352C24.2807 87.9715 17.7104 87.9715 17.7104 82.0079C17.7104 76.0442 24.2807 76.0442 24.2807 70.0805C24.2807 64.1168 17.7104 64.1168 17.7104 58.1531C17.7104 52.1895 24.2807 52.1895 24.2807 46.2258C24.2807 40.2621 17.7104 40.2621 17.7104 34.2984C17.7104 28.3348 24.2807 28.3317 24.2807 22.368C24.2807 16.4044 17.7104 16.4044 17.7104 10.4407C17.7104 4.477 24.2807 4.477 24.2807 -1.48972C24.2807 -7.45644 17.7104 -7.4534 17.7104 -13.4171C17.7104 -19.3808 24.2807 -19.3808 24.2807 -25.3444C24.2807 -31.3081 17.7104 -31.3111 17.7104 -37.2748C17.7104 -43.2385 24.2807 -43.2385 24.2807 -49.2022C24.2807 -55.1659 17.7104 -55.1689 17.7104 -61.1326C17.7104 -67.0963 24.2807 -67.0963 24.2807 -73.063C24.2807 -79.0297 17.7104 -79.0267 17.7104 -84.9903C17.7104 -90.954 24.2807 -90.9541 24.2807 -96.9177C24.2807 -102.881 17.7104 -102.884 17.7104 -108.848C17.7104 -114.812 24.2807 -114.815 24.2807 -120.779C24.2807 -126.742 17.7104 -126.742 17.7104 -132.709C17.7104 -138.676 24.2807 -138.673 24.2807 -144.639C24.2807 -150.606 17.7104 -150.606 17.7104 -156.57" stroke="#FF9140" stroke-width="0.5" stroke-miterlimit="10"/>
<path d="M26.2808 249C26.2808 243.036 32.851 243.036 32.851 237.073C32.851 231.109 26.2808 231.109 26.2808 225.145C26.2808 219.182 32.851 219.182 32.851 213.218C32.851 207.254 26.2808 207.254 26.2808 201.291C26.2808 195.327 32.851 195.324 32.851 189.36C32.851 183.396 26.2808 183.397 26.2808 177.433C26.2808 171.469 32.851 171.469 32.851 165.502C32.851 159.536 26.2808 159.539 26.2808 153.575C26.2808 147.611 32.851 147.611 32.851 141.648C32.851 135.684 26.2808 135.684 26.2808 129.72C26.2808 123.757 32.851 123.754 32.851 117.79C32.851 111.826 26.2808 111.826 26.2808 105.863C26.2808 99.8989 32.851 99.8989 32.851 93.9352C32.851 87.9715 26.2808 87.9715 26.2808 82.0079C26.2808 76.0442 32.851 76.0442 32.851 70.0805C32.851 64.1168 26.2808 64.1168 26.2808 58.1531C26.2808 52.1895 32.851 52.1895 32.851 46.2258C32.851 40.2621 26.2808 40.2621 26.2808 34.2984C26.2808 28.3348 32.851 28.3317 32.851 22.368C32.851 16.4044 26.2808 16.4044 26.2808 10.4407C26.2808 4.477 32.851 4.477 32.851 -1.48972C32.851 -7.45644 26.2808 -7.4534 26.2808 -13.4171C26.2807 -19.3808 32.851 -19.3808 32.851 -25.3444C32.851 -31.3081 26.2807 -31.3111 26.2807 -37.2748C26.2807 -43.2385 32.851 -43.2385 32.851 -49.2022C32.851 -55.1659 26.2807 -55.1689 26.2807 -61.1326C26.2807 -67.0963 32.851 -67.0963 32.851 -73.063C32.851 -79.0297 26.2807 -79.0267 26.2807 -84.9903C26.2807 -90.954 32.851 -90.9541 32.851 -96.9177C32.851 -102.881 26.2807 -102.884 26.2807 -108.848C26.2807 -114.812 32.851 -114.815 32.851 -120.779C32.851 -126.742 26.2807 -126.742 26.2807 -132.709C26.2807 -138.676 32.851 -138.673 32.851 -144.639C32.851 -150.606 26.2807 -150.606 26.2807 -156.57" stroke="#FF9140" stroke-width="0.5" stroke-miterlimit="10"/>
<path d="M34.8511 249C34.8511 243.036 41.4213 243.036 41.4213 237.073C41.4213 231.109 34.8511 231.109 34.8511 225.145C34.8511 219.182 41.4213 219.182 41.4213 213.218C41.4213 207.254 34.8511 207.254 34.8511 201.291C34.8511 195.327 41.4213 195.324 41.4213 189.36C41.4213 183.396 34.8511 183.397 34.8511 177.433C34.8511 171.469 41.4213 171.469 41.4213 165.502C41.4213 159.536 34.8511 159.539 34.8511 153.575C34.8511 147.611 41.4213 147.611 41.4213 141.648C41.4213 135.684 34.8511 135.684 34.8511 129.72C34.8511 123.757 41.4213 123.754 41.4213 117.79C41.4213 111.826 34.8511 111.826 34.8511 105.863C34.8511 99.8989 41.4213 99.8989 41.4213 93.9352C41.4213 87.9715 34.8511 87.9715 34.8511 82.0079C34.8511 76.0442 41.4213 76.0442 41.4213 70.0805C41.4213 64.1168 34.8511 64.1168 34.8511 58.1531C34.8511 52.1895 41.4213 52.1895 41.4213 46.2258C41.4213 40.2621 34.8511 40.2621 34.8511 34.2984C34.8511 28.3348 41.4213 28.3317 41.4213 22.368C41.4213 16.4044 34.8511 16.4044 34.8511 10.4407C34.8511 4.477 41.4213 4.477 41.4213 -1.48972C41.4213 -7.45644 34.8511 -7.4534 34.8511 -13.4171C34.8511 -19.3808 41.4213 -19.3808 41.4213 -25.3444C41.4213 -31.3081 34.8511 -31.3111 34.8511 -37.2748C34.8511 -43.2385 41.4213 -43.2385 41.4213 -49.2022C41.4213 -55.1659 34.8511 -55.1689 34.8511 -61.1326C34.8511 -67.0963 41.4213 -67.0963 41.4213 -73.063C41.4213 -79.0297 34.8511 -79.0267 34.8511 -84.9903C34.8511 -90.954 41.4213 -90.9541 41.4213 -96.9177C41.4213 -102.881 34.8511 -102.884 34.8511 -108.848C34.8511 -114.812 41.4213 -114.815 41.4213 -120.779C41.4213 -126.742 34.8511 -126.742 34.8511 -132.709C34.8511 -138.676 41.4213 -138.673 41.4213 -144.639C41.4213 -150.606 34.8511 -150.606 34.8511 -156.57" stroke="#FF9140" stroke-width="0.5" stroke-miterlimit="10"/>
<path d="M43.4214 249C43.4214 243.036 49.9916 243.036 49.9916 237.073C49.9916 231.109 43.4214 231.109 43.4214 225.145C43.4214 219.182 49.9916 219.182 49.9916 213.218C49.9916 207.254 43.4214 207.254 43.4214 201.291C43.4214 195.327 49.9916 195.324 49.9916 189.36C49.9916 183.396 43.4214 183.397 43.4214 177.433C43.4214 171.469 49.9916 171.469 49.9916 165.502C49.9916 159.536 43.4214 159.539 43.4214 153.575C43.4214 147.611 49.9916 147.611 49.9916 141.648C49.9916 135.684 43.4214 135.684 43.4214 129.72C43.4214 123.757 49.9916 123.754 49.9916 117.79C49.9916 111.826 43.4214 111.826 43.4214 105.863C43.4214 99.8989 49.9916 99.8989 49.9916 93.9352C49.9916 87.9715 43.4214 87.9715 43.4214 82.0079C43.4214 76.0442 49.9916 76.0442 49.9916 70.0805C49.9916 64.1168 43.4214 64.1168 43.4214 58.1531C43.4214 52.1895 49.9916 52.1895 49.9916 46.2258C49.9916 40.2621 43.4214 40.2621 43.4214 34.2984C43.4214 28.3348 49.9916 28.3317 49.9916 22.368C49.9916 16.4044 43.4214 16.4044 43.4214 10.4407C43.4214 4.477 49.9916 4.477 49.9916 -1.48972C49.9916 -7.45644 43.4214 -7.4534 43.4214 -13.4171C43.4214 -19.3808 49.9916 -19.3808 49.9916 -25.3444C49.9916 -31.3081 43.4214 -31.3111 43.4214 -37.2748C43.4214 -43.2385 49.9916 -43.2385 49.9916 -49.2022C49.9916 -55.1659 43.4214 -55.1689 43.4214 -61.1326C43.4214 -67.0963 49.9916 -67.0963 49.9916 -73.063C49.9916 -79.0297 43.4214 -79.0267 43.4214 -84.9903C43.4214 -90.954 49.9916 -90.9541 49.9916 -96.9177C49.9916 -102.881 43.4214 -102.884 43.4214 -108.848C43.4214 -114.812 49.9916 -114.815 49.9916 -120.779C49.9916 -126.742 43.4214 -126.742 43.4214 -132.709C43.4214 -138.676 49.9916 -138.673 49.9916 -144.639C49.9916 -150.606 43.4214 -150.606 43.4214 -156.57" stroke="#FF9140" stroke-width="0.5" stroke-miterlimit="10"/>
<path d="M51.9917 249C51.9917 243.036 58.5619 243.036 58.5619 237.073C58.5619 231.109 51.9917 231.109 51.9917 225.145C51.9917 219.182 58.5619 219.182 58.5619 213.218C58.5619 207.254 51.9917 207.254 51.9917 201.291C51.9917 195.327 58.5619 195.324 58.5619 189.36C58.5619 183.396 51.9917 183.397 51.9917 177.433C51.9917 171.469 58.5619 171.469 58.5619 165.502C58.5619 159.536 51.9917 159.539 51.9917 153.575C51.9917 147.611 58.5619 147.611 58.5619 141.648C58.5619 135.684 51.9917 135.684 51.9917 129.72C51.9917 123.757 58.5619 123.754 58.5619 117.79C58.5619 111.826 51.9917 111.826 51.9917 105.863C51.9917 99.8989 58.5619 99.8989 58.5619 93.9352C58.5619 87.9715 51.9917 87.9715 51.9917 82.0079C51.9917 76.0442 58.5619 76.0442 58.5619 70.0805C58.5619 64.1168 51.9917 64.1168 51.9917 58.1531C51.9917 52.1895 58.5619 52.1895 58.5619 46.2258C58.5619 40.2621 51.9917 40.2621 51.9917 34.2984C51.9917 28.3348 58.5619 28.3317 58.5619 22.368C58.5619 16.4044 51.9917 16.4044 51.9917 10.4407C51.9917 4.477 58.5619 4.477 58.5619 -1.48972C58.5619 -7.45644 51.9917 -7.4534 51.9917 -13.4171C51.9917 -19.3808 58.5619 -19.3808 58.5619 -25.3444C58.5619 -31.3081 51.9917 -31.3111 51.9917 -37.2748C51.9917 -43.2385 58.5619 -43.2385 58.5619 -49.2022C58.5619 -55.1659 51.9917 -55.1689 51.9917 -61.1326C51.9917 -67.0963 58.5619 -67.0963 58.5619 -73.063C58.5619 -79.0297 51.9917 -79.0267 51.9917 -84.9903C51.9917 -90.954 58.5619 -90.9541 58.5619 -96.9177C58.5619 -102.881 51.9917 -102.884 51.9917 -108.848C51.9917 -114.812 58.5619 -114.815 58.5619 -120.779C58.5619 -126.742 51.9917 -126.742 51.9917 -132.709C51.9917 -138.676 58.5619 -138.673 58.5619 -144.639C58.5619 -150.606 51.9917 -150.606 51.9917 -156.57" stroke="#FF9140" stroke-width="0.5" stroke-miterlimit="10"/>
<path d="M60.562 249C60.562 243.036 67.1322 243.036 67.1322 237.073C67.1322 231.109 60.562 231.109 60.562 225.145C60.562 219.182 67.1322 219.182 67.1322 213.218C67.1322 207.254 60.562 207.254 60.562 201.291C60.562 195.327 67.1322 195.324 67.1322 189.36C67.1322 183.396 60.562 183.397 60.562 177.433C60.562 171.469 67.1322 171.469 67.1322 165.502C67.1322 159.536 60.562 159.539 60.562 153.575C60.562 147.611 67.1322 147.611 67.1322 141.648C67.1322 135.684 60.562 135.684 60.562 129.72C60.562 123.757 67.1322 123.754 67.1322 117.79C67.1322 111.826 60.562 111.826 60.562 105.863C60.562 99.8989 67.1322 99.8989 67.1322 93.9352C67.1322 87.9715 60.562 87.9715 60.562 82.0079C60.562 76.0442 67.1322 76.0442 67.1322 70.0805C67.1322 64.1168 60.562 64.1168 60.562 58.1531C60.562 52.1895 67.1322 52.1895 67.1322 46.2258C67.1322 40.2621 60.562 40.2621 60.562 34.2984C60.562 28.3348 67.1322 28.3317 67.1322 22.368C67.1322 16.4044 60.562 16.4044 60.562 10.4407C60.562 4.477 67.1322 4.477 67.1322 -1.48972C67.1322 -7.45644 60.562 -7.4534 60.562 -13.4171C60.562 -19.3808 67.1322 -19.3808 67.1322 -25.3444C67.1322 -31.3081 60.562 -31.3111 60.562 -37.2748C60.562 -43.2385 67.1322 -43.2385 67.1322 -49.2022C67.1322 -55.1659 60.562 -55.1689 60.562 -61.1326C60.562 -67.0963 67.1322 -67.0963 67.1322 -73.063C67.1322 -79.0297 60.562 -79.0267 60.562 -84.9903C60.562 -90.954 67.1322 -90.9541 67.1322 -96.9177C67.1322 -102.881 60.562 -102.884 60.562 -108.848C60.562 -114.812 67.1322 -114.815 67.1322 -120.779C67.1322 -126.742 60.562 -126.742 60.562 -132.709C60.562 -138.676 67.1322 -138.673 67.1322 -144.639C67.1322 -150.606 60.562 -150.606 60.562 -156.57" stroke="#FF9140" stroke-width="0.5" stroke-miterlimit="10"/>
<path d="M69.1318 249C69.1318 243.036 75.7021 243.036 75.7021 237.073C75.7021 231.109 69.1318 231.109 69.1318 225.145C69.1318 219.182 75.7021 219.182 75.7021 213.218C75.7021 207.254 69.1318 207.254 69.1318 201.291C69.1318 195.327 75.7021 195.324 75.7021 189.36C75.7021 183.396 69.1318 183.397 69.1318 177.433C69.1318 171.469 75.7021 171.469 75.7021 165.502C75.7021 159.536 69.1318 159.539 69.1318 153.575C69.1318 147.611 75.7021 147.611 75.7021 141.648C75.7021 135.684 69.1318 135.684 69.1318 129.72C69.1318 123.757 75.7021 123.754 75.7021 117.79C75.7021 111.826 69.1318 111.826 69.1318 105.863C69.1318 99.8989 75.7021 99.8989 75.7021 93.9352C75.7021 87.9715 69.1318 87.9715 69.1318 82.0079C69.1318 76.0442 75.7021 76.0442 75.7021 70.0805C75.7021 64.1168 69.1318 64.1168 69.1318 58.1531C69.1318 52.1895 75.7021 52.1895 75.7021 46.2258C75.7021 40.2621 69.1318 40.2621 69.1318 34.2984C69.1318 28.3348 75.7021 28.3317 75.7021 22.368C75.7021 16.4044 69.1318 16.4044 69.1318 10.4407C69.1318 4.477 75.7021 4.477 75.7021 -1.48972C75.7021 -7.45644 69.1318 -7.4534 69.1318 -13.4171C69.1318 -19.3808 75.7021 -19.3808 75.7021 -25.3444C75.7021 -31.3081 69.1318 -31.3111 69.1318 -37.2748C69.1318 -43.2385 75.7021 -43.2385 75.7021 -49.2022C75.7021 -55.1659 69.1318 -55.1689 69.1318 -61.1326C69.1318 -67.0963 75.7021 -67.0963 75.7021 -73.063C75.7021 -79.0297 69.1318 -79.0267 69.1318 -84.9903C69.1318 -90.954 75.7021 -90.9541 75.7021 -96.9177C75.7021 -102.881 69.1318 -102.884 69.1318 -108.848C69.1318 -114.812 75.702 -114.815 75.702 -120.779C75.702 -126.742 69.1318 -126.742 69.1318 -132.709C69.1318 -138.676 75.702 -138.673 75.702 -144.639C75.702 -150.606 69.1318 -150.606 69.1318 -156.57" stroke="#FF9140" stroke-width="0.5" stroke-miterlimit="10"/>
<path d="M77.7021 249C77.7021 243.036 84.2724 243.036 84.2724 237.073C84.2724 231.109 77.7021 231.109 77.7021 225.145C77.7021 219.182 84.2724 219.182 84.2724 213.218C84.2724 207.254 77.7021 207.254 77.7021 201.291C77.7021 195.327 84.2724 195.324 84.2724 189.36C84.2724 183.396 77.7021 183.397 77.7021 177.433C77.7021 171.469 84.2724 171.469 84.2724 165.502C84.2724 159.536 77.7021 159.539 77.7021 153.575C77.7021 147.611 84.2724 147.611 84.2724 141.648C84.2724 135.684 77.7021 135.684 77.7021 129.72C77.7021 123.757 84.2724 123.754 84.2724 117.79C84.2724 111.826 77.7021 111.826 77.7021 105.863C77.7021 99.8989 84.2724 99.8989 84.2724 93.9352C84.2724 87.9715 77.7021 87.9715 77.7021 82.0079C77.7021 76.0442 84.2724 76.0442 84.2724 70.0805C84.2724 64.1168 77.7021 64.1168 77.7021 58.1531C77.7021 52.1895 84.2724 52.1895 84.2724 46.2258C84.2724 40.2621 77.7021 40.2621 77.7021 34.2984C77.7021 28.3348 84.2724 28.3317 84.2724 22.368C84.2724 16.4044 77.7021 16.4044 77.7021 10.4407C77.7021 4.477 84.2724 4.477 84.2724 -1.48972C84.2724 -7.45644 77.7021 -7.4534 77.7021 -13.4171C77.7021 -19.3808 84.2724 -19.3808 84.2724 -25.3444C84.2724 -31.3081 77.7021 -31.3111 77.7021 -37.2748C77.7021 -43.2385 84.2724 -43.2385 84.2724 -49.2022C84.2724 -55.1659 77.7021 -55.1689 77.7021 -61.1326C77.7021 -67.0963 84.2724 -67.0963 84.2724 -73.063C84.2724 -79.0297 77.7021 -79.0267 77.7021 -84.9903C77.7021 -90.954 84.2724 -90.9541 84.2724 -96.9177C84.2724 -102.881 77.7021 -102.884 77.7021 -108.848C77.7021 -114.812 84.2724 -114.815 84.2724 -120.779C84.2724 -126.742 77.7021 -126.742 77.7021 -132.709C77.7021 -138.676 84.2724 -138.673 84.2724 -144.639C84.2724 -150.606 77.7021 -150.606 77.7021 -156.57" stroke="#FF9140" stroke-width="0.5" stroke-miterlimit="10"/>
<path d="M86.2725 249C86.2725 243.036 92.8427 243.036 92.8427 237.073C92.8427 231.109 86.2725 231.109 86.2725 225.145C86.2725 219.182 92.8427 219.182 92.8427 213.218C92.8427 207.254 86.2725 207.254 86.2725 201.291C86.2725 195.327 92.8427 195.324 92.8427 189.36C92.8427 183.396 86.2725 183.397 86.2725 177.433C86.2725 171.469 92.8427 171.469 92.8427 165.502C92.8427 159.536 86.2725 159.539 86.2725 153.575C86.2725 147.611 92.8427 147.611 92.8427 141.648C92.8427 135.684 86.2725 135.684 86.2725 129.72C86.2725 123.757 92.8427 123.754 92.8427 117.79C92.8427 111.826 86.2725 111.826 86.2725 105.863C86.2725 99.8989 92.8427 99.8989 92.8427 93.9352C92.8427 87.9715 86.2725 87.9715 86.2725 82.0079C86.2725 76.0442 92.8427 76.0442 92.8427 70.0805C92.8427 64.1168 86.2725 64.1168 86.2725 58.1531C86.2725 52.1895 92.8427 52.1895 92.8427 46.2258C92.8427 40.2621 86.2725 40.2621 86.2725 34.2984C86.2725 28.3348 92.8427 28.3317 92.8427 22.368C92.8427 16.4044 86.2725 16.4044 86.2725 10.4407C86.2725 4.477 92.8427 4.477 92.8427 -1.48972C92.8427 -7.45644 86.2724 -7.4534 86.2724 -13.4171C86.2724 -19.3808 92.8427 -19.3808 92.8427 -25.3444C92.8427 -31.3081 86.2724 -31.3111 86.2724 -37.2748C86.2724 -43.2385 92.8427 -43.2385 92.8427 -49.2022C92.8427 -55.1659 86.2724 -55.1689 86.2724 -61.1326C86.2724 -67.0963 92.8427 -67.0963 92.8427 -73.063C92.8427 -79.0297 86.2724 -79.0267 86.2724 -84.9903C86.2724 -90.954 92.8427 -90.9541 92.8427 -96.9177C92.8427 -102.881 86.2724 -102.884 86.2724 -108.848C86.2724 -114.812 92.8427 -114.815 92.8427 -120.779C92.8427 -126.742 86.2724 -126.742 86.2724 -132.709C86.2724 -138.676 92.8427 -138.673 92.8427 -144.639C92.8427 -150.606 86.2724 -150.606 86.2724 -156.57" stroke="#FF9140" stroke-width="0.5" stroke-miterlimit="10"/>
<path d="M94.8428 249C94.8428 243.036 101.413 243.036 101.413 237.073C101.413 231.109 94.8428 231.109 94.8428 225.145C94.8428 219.182 101.413 219.182 101.413 213.218C101.413 207.254 94.8428 207.254 94.8428 201.291C94.8428 195.327 101.413 195.324 101.413 189.36C101.413 183.396 94.8428 183.397 94.8428 177.433C94.8428 171.469 101.413 171.469 101.413 165.502C101.413 159.536 94.8428 159.539 94.8428 153.575C94.8428 147.611 101.413 147.611 101.413 141.648C101.413 135.684 94.8428 135.684 94.8428 129.72C94.8428 123.757 101.413 123.754 101.413 117.79C101.413 111.826 94.8428 111.826 94.8428 105.863C94.8428 99.8989 101.413 99.8989 101.413 93.9352C101.413 87.9715 94.8428 87.9715 94.8428 82.0079C94.8428 76.0442 101.413 76.0442 101.413 70.0805C101.413 64.1168 94.8428 64.1168 94.8428 58.1531C94.8428 52.1895 101.413 52.1895 101.413 46.2258C101.413 40.2621 94.8428 40.2621 94.8428 34.2984C94.8428 28.3348 101.413 28.3317 101.413 22.368C101.413 16.4044 94.8428 16.4044 94.8428 10.4407C94.8428 4.477 101.413 4.477 101.413 -1.48972C101.413 -7.45644 94.8428 -7.4534 94.8428 -13.4171C94.8428 -19.3808 101.413 -19.3808 101.413 -25.3444C101.413 -31.3081 94.8428 -31.3111 94.8428 -37.2748C94.8428 -43.2385 101.413 -43.2385 101.413 -49.2022C101.413 -55.1659 94.8428 -55.1689 94.8428 -61.1326C94.8428 -67.0963 101.413 -67.0963 101.413 -73.063C101.413 -79.0297 94.8428 -79.0267 94.8428 -84.9903C94.8428 -90.954 101.413 -90.9541 101.413 -96.9177C101.413 -102.881 94.8428 -102.884 94.8428 -108.848C94.8428 -114.812 101.413 -114.815 101.413 -120.779C101.413 -126.742 94.8428 -126.742 94.8428 -132.709C94.8428 -138.676 101.413 -138.673 101.413 -144.639C101.413 -150.606 94.8428 -150.606 94.8428 -156.57" stroke="#FF9140" stroke-width="0.5" stroke-miterlimit="10"/>
<path d="M103.413 249C103.413 243.036 109.983 243.036 109.983 237.073C109.983 231.109 103.413 231.109 103.413 225.145C103.413 219.182 109.983 219.182 109.983 213.218C109.983 207.254 103.413 207.254 103.413 201.291C103.413 195.327 109.983 195.324 109.983 189.36C109.983 183.396 103.413 183.397 103.413 177.433C103.413 171.469 109.983 171.469 109.983 165.502C109.983 159.536 103.413 159.539 103.413 153.575C103.413 147.611 109.983 147.611 109.983 141.648C109.983 135.684 103.413 135.684 103.413 129.72C103.413 123.757 109.983 123.754 109.983 117.79C109.983 111.826 103.413 111.826 103.413 105.863C103.413 99.8989 109.983 99.8989 109.983 93.9352C109.983 87.9715 103.413 87.9715 103.413 82.0079C103.413 76.0442 109.983 76.0442 109.983 70.0805C109.983 64.1168 103.413 64.1168 103.413 58.1531C103.413 52.1895 109.983 52.1895 109.983 46.2258C109.983 40.2621 103.413 40.2621 103.413 34.2984C103.413 28.3348 109.983 28.3317 109.983 22.368C109.983 16.4044 103.413 16.4044 103.413 10.4407C103.413 4.477 109.983 4.477 109.983 -1.48972C109.983 -7.45644 103.413 -7.4534 103.413 -13.4171C103.413 -19.3808 109.983 -19.3808 109.983 -25.3444C109.983 -31.3081 103.413 -31.3111 103.413 -37.2748C103.413 -43.2385 109.983 -43.2385 109.983 -49.2022C109.983 -55.1659 103.413 -55.1689 103.413 -61.1326C103.413 -67.0963 109.983 -67.0963 109.983 -73.063C109.983 -79.0297 103.413 -79.0267 103.413 -84.9903C103.413 -90.954 109.983 -90.9541 109.983 -96.9177C109.983 -102.881 103.413 -102.884 103.413 -108.848C103.413 -114.812 109.983 -114.815 109.983 -120.779C109.983 -126.742 103.413 -126.742 103.413 -132.709C103.413 -138.676 109.983 -138.673 109.983 -144.639C109.983 -150.606 103.413 -150.606 103.413 -156.57" stroke="#FF9140" stroke-width="0.5" stroke-miterlimit="10"/>
<path d="M111.983 249C111.983 243.036 118.554 243.036 118.554 237.073C118.554 231.109 111.983 231.109 111.983 225.145C111.983 219.182 118.554 219.182 118.554 213.218C118.554 207.254 111.983 207.254 111.983 201.291C111.983 195.327 118.554 195.324 118.554 189.36C118.554 183.396 111.983 183.397 111.983 177.433C111.983 171.469 118.554 171.469 118.554 165.502C118.554 159.536 111.983 159.539 111.983 153.575C111.983 147.611 118.554 147.611 118.554 141.648C118.554 135.684 111.983 135.684 111.983 129.72C111.983 123.757 118.554 123.754 118.554 117.79C118.554 111.826 111.983 111.826 111.983 105.863C111.983 99.8989 118.554 99.8989 118.554 93.9352C118.554 87.9715 111.983 87.9715 111.983 82.0079C111.983 76.0442 118.554 76.0442 118.554 70.0805C118.554 64.1168 111.983 64.1168 111.983 58.1531C111.983 52.1895 118.554 52.1895 118.554 46.2258C118.554 40.2621 111.983 40.2621 111.983 34.2984C111.983 28.3348 118.554 28.3317 118.554 22.368C118.554 16.4044 111.983 16.4044 111.983 10.4407C111.983 4.477 118.554 4.477 118.554 -1.48972C118.554 -7.45644 111.983 -7.4534 111.983 -13.4171C111.983 -19.3808 118.554 -19.3808 118.554 -25.3444C118.554 -31.3081 111.983 -31.3111 111.983 -37.2748C111.983 -43.2385 118.554 -43.2385 118.554 -49.2022C118.554 -55.1659 111.983 -55.1689 111.983 -61.1326C111.983 -67.0963 118.554 -67.0963 118.554 -73.063C118.554 -79.0297 111.983 -79.0267 111.983 -84.9903C111.983 -90.954 118.554 -90.9541 118.554 -96.9177C118.554 -102.881 111.983 -102.884 111.983 -108.848C111.983 -114.812 118.554 -114.815 118.554 -120.779C118.554 -126.742 111.983 -126.742 111.983 -132.709C111.983 -138.676 118.554 -138.673 118.554 -144.639C118.554 -150.606 111.983 -150.606 111.983 -156.57" stroke="#FF9140" stroke-width="0.5" stroke-miterlimit="10"/>
<path d="M120.553 249C120.553 243.036 127.123 243.036 127.123 237.073C127.123 231.109 120.553 231.109 120.553 225.145C120.553 219.182 127.123 219.182 127.123 213.218C127.123 207.254 120.553 207.254 120.553 201.291C120.553 195.327 127.123 195.324 127.123 189.36C127.123 183.396 120.553 183.397 120.553 177.433C120.553 171.469 127.123 171.469 127.123 165.502C127.123 159.536 120.553 159.539 120.553 153.575C120.553 147.611 127.123 147.611 127.123 141.648C127.123 135.684 120.553 135.684 120.553 129.72C120.553 123.757 127.123 123.754 127.123 117.79C127.123 111.826 120.553 111.826 120.553 105.863C120.553 99.8989 127.123 99.8989 127.123 93.9352C127.123 87.9715 120.553 87.9715 120.553 82.0079C120.553 76.0442 127.123 76.0442 127.123 70.0805C127.123 64.1168 120.553 64.1168 120.553 58.1531C120.553 52.1895 127.123 52.1895 127.123 46.2258C127.123 40.2621 120.553 40.2621 120.553 34.2984C120.553 28.3348 127.123 28.3317 127.123 22.368C127.123 16.4044 120.553 16.4044 120.553 10.4407C120.553 4.477 127.123 4.477 127.123 -1.48972C127.123 -7.45644 120.553 -7.4534 120.553 -13.4171C120.553 -19.3808 127.123 -19.3808 127.123 -25.3444C127.123 -31.3081 120.553 -31.3111 120.553 -37.2748C120.553 -43.2385 127.123 -43.2385 127.123 -49.2022C127.123 -55.1659 120.553 -55.1689 120.553 -61.1326C120.553 -67.0963 127.123 -67.0963 127.123 -73.063C127.123 -79.0297 120.553 -79.0267 120.553 -84.9903C120.553 -90.954 127.123 -90.9541 127.123 -96.9177C127.123 -102.881 120.553 -102.884 120.553 -108.848C120.553 -114.812 127.123 -114.815 127.123 -120.779C127.123 -126.742 120.553 -126.742 120.553 -132.709C120.553 -138.676 127.123 -138.673 127.123 -144.639C127.123 -150.606 120.553 -150.606 120.553 -156.57" stroke="#FF9140" stroke-width="0.5" stroke-miterlimit="10"/>
<path d="M129.124 249C129.124 243.036 135.694 243.036 135.694 237.073C135.694 231.109 129.124 231.109 129.124 225.145C129.124 219.182 135.694 219.182 135.694 213.218C135.694 207.254 129.124 207.254 129.124 201.291C129.124 195.327 135.694 195.324 135.694 189.36C135.694 183.396 129.124 183.397 129.124 177.433C129.124 171.469 135.694 171.469 135.694 165.502C135.694 159.536 129.124 159.539 129.124 153.575C129.124 147.611 135.694 147.611 135.694 141.648C135.694 135.684 129.124 135.684 129.124 129.72C129.124 123.757 135.694 123.754 135.694 117.79C135.694 111.826 129.124 111.826 129.124 105.863C129.124 99.8989 135.694 99.8989 135.694 93.9352C135.694 87.9715 129.124 87.9715 129.124 82.0079C129.124 76.0442 135.694 76.0442 135.694 70.0805C135.694 64.1168 129.124 64.1168 129.124 58.1531C129.124 52.1895 135.694 52.1895 135.694 46.2258C135.694 40.2621 129.124 40.2621 129.124 34.2984C129.124 28.3348 135.694 28.3317 135.694 22.368C135.694 16.4044 129.124 16.4044 129.124 10.4407C129.124 4.477 135.694 4.477 135.694 -1.48972C135.694 -7.45644 129.124 -7.4534 129.124 -13.4171C129.124 -19.3808 135.694 -19.3808 135.694 -25.3444C135.694 -31.3081 129.124 -31.3111 129.124 -37.2748C129.124 -43.2385 135.694 -43.2385 135.694 -49.2022C135.694 -55.1659 129.124 -55.1689 129.124 -61.1326C129.124 -67.0963 135.694 -67.0963 135.694 -73.063C135.694 -79.0297 129.124 -79.0267 129.124 -84.9903C129.124 -90.954 135.694 -90.9541 135.694 -96.9177C135.694 -102.881 129.124 -102.884 129.124 -108.848C129.124 -114.812 135.694 -114.815 135.694 -120.779C135.694 -126.742 129.124 -126.742 129.124 -132.709C129.124 -138.676 135.694 -138.673 135.694 -144.639C135.694 -150.606 129.124 -150.606 129.124 -156.57" stroke="#FF9140" stroke-width="0.5" stroke-miterlimit="10"/>
<path d="M137.694 249C137.694 243.036 144.264 243.036 144.264 237.073C144.264 231.109 137.694 231.109 137.694 225.145C137.694 219.182 144.264 219.182 144.264 213.218C144.264 207.254 137.694 207.254 137.694 201.291C137.694 195.327 144.264 195.324 144.264 189.36C144.264 183.396 137.694 183.397 137.694 177.433C137.694 171.469 144.264 171.469 144.264 165.502C144.264 159.536 137.694 159.539 137.694 153.575C137.694 147.611 144.264 147.611 144.264 141.648C144.264 135.684 137.694 135.684 137.694 129.72C137.694 123.757 144.264 123.754 144.264 117.79C144.264 111.826 137.694 111.826 137.694 105.863C137.694 99.8989 144.264 99.8989 144.264 93.9352C144.264 87.9715 137.694 87.9715 137.694 82.0079C137.694 76.0442 144.264 76.0442 144.264 70.0805C144.264 64.1168 137.694 64.1168 137.694 58.1531C137.694 52.1895 144.264 52.1895 144.264 46.2258C144.264 40.2621 137.694 40.2621 137.694 34.2984C137.694 28.3348 144.264 28.3317 144.264 22.368C144.264 16.4044 137.694 16.4044 137.694 10.4407C137.694 4.477 144.264 4.477 144.264 -1.48972C144.264 -7.45644 137.694 -7.4534 137.694 -13.4171C137.694 -19.3808 144.264 -19.3808 144.264 -25.3444C144.264 -31.3081 137.694 -31.3111 137.694 -37.2748C137.694 -43.2385 144.264 -43.2385 144.264 -49.2022C144.264 -55.1659 137.694 -55.1689 137.694 -61.1326C137.694 -67.0963 144.264 -67.0963 144.264 -73.063C144.264 -79.0297 137.694 -79.0267 137.694 -84.9903C137.694 -90.954 144.264 -90.9541 144.264 -96.9177C144.264 -102.881 137.694 -102.884 137.694 -108.848C137.694 -114.812 144.264 -114.815 144.264 -120.779C144.264 -126.742 137.694 -126.742 137.694 -132.709C137.694 -138.676 144.264 -138.673 144.264 -144.639C144.264 -150.606 137.694 -150.606 137.694 -156.57" stroke="#FF9140" stroke-width="0.5" stroke-miterlimit="10"/>
<path d="M146.264 249C146.264 243.036 152.834 243.036 152.834 237.073C152.834 231.109 146.264 231.109 146.264 225.145C146.264 219.182 152.834 219.182 152.834 213.218C152.834 207.254 146.264 207.254 146.264 201.291C146.264 195.327 152.834 195.324 152.834 189.36C152.834 183.396 146.264 183.397 146.264 177.433C146.264 171.469 152.834 171.469 152.834 165.502C152.834 159.536 146.264 159.539 146.264 153.575C146.264 147.611 152.834 147.611 152.834 141.648C152.834 135.684 146.264 135.684 146.264 129.72C146.264 123.757 152.834 123.754 152.834 117.79C152.834 111.826 146.264 111.826 146.264 105.863C146.264 99.8989 152.834 99.8989 152.834 93.9352C152.834 87.9715 146.264 87.9715 146.264 82.0079C146.264 76.0442 152.834 76.0442 152.834 70.0805C152.834 64.1168 146.264 64.1168 146.264 58.1531C146.264 52.1895 152.834 52.1895 152.834 46.2258C152.834 40.2621 146.264 40.2621 146.264 34.2984C146.264 28.3348 152.834 28.3317 152.834 22.368C152.834 16.4044 146.264 16.4044 146.264 10.4407C146.264 4.477 152.834 4.477 152.834 -1.48972C152.834 -7.45644 146.264 -7.4534 146.264 -13.4171C146.264 -19.3808 152.834 -19.3808 152.834 -25.3444C152.834 -31.3081 146.264 -31.3111 146.264 -37.2748C146.264 -43.2385 152.834 -43.2385 152.834 -49.2022C152.834 -55.1659 146.264 -55.1689 146.264 -61.1326C146.264 -67.0963 152.834 -67.0963 152.834 -73.063C152.834 -79.0297 146.264 -79.0267 146.264 -84.9903C146.264 -90.954 152.834 -90.9541 152.834 -96.9177C152.834 -102.881 146.264 -102.884 146.264 -108.848C146.264 -114.812 152.834 -114.815 152.834 -120.779C152.834 -126.742 146.264 -126.742 146.264 -132.709C146.264 -138.676 152.834 -138.673 152.834 -144.639C152.834 -150.606 146.264 -150.606 146.264 -156.57" stroke="#FF9140" stroke-width="0.5" stroke-miterlimit="10"/>
<path d="M154.834 249C154.834 243.036 161.405 243.036 161.405 237.073C161.405 231.109 154.834 231.109 154.834 225.145C154.834 219.182 161.405 219.182 161.405 213.218C161.405 207.254 154.834 207.254 154.834 201.291C154.834 195.327 161.405 195.324 161.405 189.36C161.405 183.396 154.834 183.397 154.834 177.433C154.834 171.469 161.405 171.469 161.405 165.502C161.405 159.536 154.834 159.539 154.834 153.575C154.834 147.611 161.405 147.611 161.405 141.648C161.405 135.684 154.834 135.684 154.834 129.72C154.834 123.757 161.405 123.754 161.405 117.79C161.405 111.826 154.834 111.826 154.834 105.863C154.834 99.8989 161.405 99.8989 161.405 93.9352C161.405 87.9715 154.834 87.9715 154.834 82.0079C154.834 76.0442 161.405 76.0442 161.405 70.0805C161.405 64.1168 154.834 64.1168 154.834 58.1531C154.834 52.1895 161.405 52.1895 161.405 46.2258C161.405 40.2621 154.834 40.2621 154.834 34.2984C154.834 28.3348 161.405 28.3317 161.405 22.368C161.405 16.4044 154.834 16.4044 154.834 10.4407C154.834 4.477 161.405 4.477 161.405 -1.48972C161.405 -7.45644 154.834 -7.4534 154.834 -13.4171C154.834 -19.3808 161.405 -19.3808 161.405 -25.3444C161.405 -31.3081 154.834 -31.3111 154.834 -37.2748C154.834 -43.2385 161.405 -43.2385 161.405 -49.2022C161.405 -55.1659 154.834 -55.1689 154.834 -61.1326C154.834 -67.0963 161.405 -67.0963 161.405 -73.063C161.405 -79.0297 154.834 -79.0267 154.834 -84.9903C154.834 -90.954 161.405 -90.9541 161.405 -96.9177C161.405 -102.881 154.834 -102.884 154.834 -108.848C154.834 -114.812 161.405 -114.815 161.405 -120.779C161.405 -126.742 154.834 -126.742 154.834 -132.709C154.834 -138.676 161.405 -138.673 161.405 -144.639C161.405 -150.606 154.834 -150.606 154.834 -156.57" stroke="#FF9140" stroke-width="0.5" stroke-miterlimit="10"/>
<path d="M163.405 249C163.405 243.036 169.975 243.036 169.975 237.073C169.975 231.109 163.405 231.109 163.405 225.145C163.405 219.182 169.975 219.182 169.975 213.218C169.975 207.254 163.405 207.254 163.405 201.291C163.405 195.327 169.975 195.324 169.975 189.36C169.975 183.396 163.405 183.397 163.405 177.433C163.405 171.469 169.975 171.469 169.975 165.502C169.975 159.536 163.405 159.539 163.405 153.575C163.405 147.611 169.975 147.611 169.975 141.648C169.975 135.684 163.405 135.684 163.405 129.72C163.405 123.757 169.975 123.754 169.975 117.79C169.975 111.826 163.405 111.826 163.405 105.863C163.405 99.8989 169.975 99.8989 169.975 93.9352C169.975 87.9715 163.405 87.9715 163.405 82.0079C163.405 76.0442 169.975 76.0442 169.975 70.0805C169.975 64.1168 163.405 64.1168 163.405 58.1531C163.405 52.1895 169.975 52.1895 169.975 46.2258C169.975 40.2621 163.405 40.2621 163.405 34.2984C163.405 28.3348 169.975 28.3317 169.975 22.368C169.975 16.4044 163.405 16.4044 163.405 10.4407C163.405 4.477 169.975 4.477 169.975 -1.48972C169.975 -7.45644 163.405 -7.4534 163.405 -13.4171C163.405 -19.3808 169.975 -19.3808 169.975 -25.3444C169.975 -31.3081 163.405 -31.3111 163.405 -37.2748C163.405 -43.2385 169.975 -43.2385 169.975 -49.2022C169.975 -55.1659 163.405 -55.1689 163.405 -61.1326C163.405 -67.0963 169.975 -67.0963 169.975 -73.063C169.975 -79.0297 163.405 -79.0267 163.405 -84.9903C163.405 -90.954 169.975 -90.9541 169.975 -96.9177C169.975 -102.881 163.405 -102.884 163.405 -108.848C163.405 -114.812 169.975 -114.815 169.975 -120.779C169.975 -126.742 163.405 -126.742 163.405 -132.709C163.405 -138.676 169.975 -138.673 169.975 -144.639C169.975 -150.606 163.405 -150.606 163.405 -156.57" stroke="#FF9140" stroke-width="0.5" stroke-miterlimit="10"/>
<path d="M171.975 249C171.975 243.036 178.545 243.036 178.545 237.073C178.545 231.109 171.975 231.109 171.975 225.145C171.975 219.182 178.545 219.182 178.545 213.218C178.545 207.254 171.975 207.254 171.975 201.291C171.975 195.327 178.545 195.324 178.545 189.36C178.545 183.396 171.975 183.397 171.975 177.433C171.975 171.469 178.545 171.469 178.545 165.502C178.545 159.536 171.975 159.539 171.975 153.575C171.975 147.611 178.545 147.611 178.545 141.648C178.545 135.684 171.975 135.684 171.975 129.72C171.975 123.757 178.545 123.754 178.545 117.79C178.545 111.826 171.975 111.826 171.975 105.863C171.975 99.8989 178.545 99.8989 178.545 93.9352C178.545 87.9715 171.975 87.9715 171.975 82.0079C171.975 76.0442 178.545 76.0442 178.545 70.0805C178.545 64.1168 171.975 64.1168 171.975 58.1531C171.975 52.1895 178.545 52.1895 178.545 46.2258C178.545 40.2621 171.975 40.2621 171.975 34.2984C171.975 28.3348 178.545 28.3317 178.545 22.368C178.545 16.4044 171.975 16.4044 171.975 10.4407C171.975 4.477 178.545 4.477 178.545 -1.48972C178.545 -7.45644 171.975 -7.4534 171.975 -13.4171C171.975 -19.3808 178.545 -19.3808 178.545 -25.3444C178.545 -31.3081 171.975 -31.3111 171.975 -37.2748C171.975 -43.2385 178.545 -43.2385 178.545 -49.2022C178.545 -55.1659 171.975 -55.1689 171.975 -61.1326C171.975 -67.0963 178.545 -67.0963 178.545 -73.063C178.545 -79.0297 171.975 -79.0267 171.975 -84.9903C171.975 -90.954 178.545 -90.9541 178.545 -96.9177C178.545 -102.881 171.975 -102.884 171.975 -108.848C171.975 -114.812 178.545 -114.815 178.545 -120.779C178.545 -126.742 171.975 -126.742 171.975 -132.709C171.975 -138.676 178.545 -138.673 178.545 -144.639C178.545 -150.606 171.975 -150.606 171.975 -156.57" stroke="#FF9140" stroke-width="0.5" stroke-miterlimit="10"/>
<path d="M180.545 249C180.545 243.036 187.115 243.036 187.115 237.073C187.115 231.109 180.545 231.109 180.545 225.145C180.545 219.182 187.115 219.182 187.115 213.218C187.115 207.254 180.545 207.254 180.545 201.291C180.545 195.327 187.115 195.324 187.115 189.36C187.115 183.396 180.545 183.397 180.545 177.433C180.545 171.469 187.115 171.469 187.115 165.502C187.115 159.536 180.545 159.539 180.545 153.575C180.545 147.611 187.115 147.611 187.115 141.648C187.115 135.684 180.545 135.684 180.545 129.72C180.545 123.757 187.115 123.754 187.115 117.79C187.115 111.826 180.545 111.826 180.545 105.863C180.545 99.8989 187.115 99.8989 187.115 93.9352C187.115 87.9715 180.545 87.9715 180.545 82.0079C180.545 76.0442 187.115 76.0442 187.115 70.0805C187.115 64.1168 180.545 64.1168 180.545 58.1531C180.545 52.1895 187.115 52.1895 187.115 46.2258C187.115 40.2621 180.545 40.2621 180.545 34.2984C180.545 28.3348 187.115 28.3317 187.115 22.368C187.115 16.4044 180.545 16.4044 180.545 10.4407C180.545 4.477 187.115 4.477 187.115 -1.48972C187.115 -7.45644 180.545 -7.4534 180.545 -13.4171C180.545 -19.3808 187.115 -19.3808 187.115 -25.3444C187.115 -31.3081 180.545 -31.3111 180.545 -37.2748C180.545 -43.2385 187.115 -43.2385 187.115 -49.2022C187.115 -55.1659 180.545 -55.1689 180.545 -61.1326C180.545 -67.0963 187.115 -67.0963 187.115 -73.063C187.115 -79.0297 180.545 -79.0267 180.545 -84.9903C180.545 -90.954 187.115 -90.9541 187.115 -96.9177C187.115 -102.881 180.545 -102.884 180.545 -108.848C180.545 -114.812 187.115 -114.815 187.115 -120.779C187.115 -126.742 180.545 -126.742 180.545 -132.709C180.545 -138.676 187.115 -138.673 187.115 -144.639C187.115 -150.606 180.545 -150.606 180.545 -156.57" stroke="#FF9140" stroke-width="0.5" stroke-miterlimit="10"/>
<path d="M189.115 249C189.115 243.036 195.685 243.036 195.685 237.073C195.685 231.109 189.115 231.109 189.115 225.145C189.115 219.182 195.685 219.182 195.685 213.218C195.685 207.254 189.115 207.254 189.115 201.291C189.115 195.327 195.685 195.324 195.685 189.36C195.685 183.396 189.115 183.397 189.115 177.433C189.115 171.469 195.685 171.469 195.685 165.502C195.685 159.536 189.115 159.539 189.115 153.575C189.115 147.611 195.685 147.611 195.685 141.648C195.685 135.684 189.115 135.684 189.115 129.72C189.115 123.757 195.685 123.754 195.685 117.79C195.685 111.826 189.115 111.826 189.115 105.863C189.115 99.8989 195.685 99.8989 195.685 93.9352C195.685 87.9715 189.115 87.9715 189.115 82.0079C189.115 76.0442 195.685 76.0442 195.685 70.0805C195.685 64.1168 189.115 64.1168 189.115 58.1531C189.115 52.1895 195.685 52.1895 195.685 46.2258C195.685 40.2621 189.115 40.2621 189.115 34.2984C189.115 28.3348 195.685 28.3317 195.685 22.368C195.685 16.4044 189.115 16.4044 189.115 10.4407C189.115 4.477 195.685 4.477 195.685 -1.48972C195.685 -7.45644 189.115 -7.4534 189.115 -13.4171C189.115 -19.3808 195.685 -19.3808 195.685 -25.3444C195.685 -31.3081 189.115 -31.3111 189.115 -37.2748C189.115 -43.2385 195.685 -43.2385 195.685 -49.2022C195.685 -55.1659 189.115 -55.1689 189.115 -61.1326C189.115 -67.0963 195.685 -67.0963 195.685 -73.063C195.685 -79.0297 189.115 -79.0267 189.115 -84.9903C189.115 -90.954 195.685 -90.9541 195.685 -96.9177C195.685 -102.881 189.115 -102.884 189.115 -108.848C189.115 -114.812 195.685 -114.815 195.685 -120.779C195.685 -126.742 189.115 -126.742 189.115 -132.709C189.115 -138.676 195.685 -138.673 195.685 -144.639C195.685 -150.606 189.115 -150.606 189.115 -156.57" stroke="#FF9140" stroke-width="0.5" stroke-miterlimit="10"/>
<path d="M197.686 249C197.686 243.036 204.256 243.036 204.256 237.073C204.256 231.109 197.686 231.109 197.686 225.145C197.686 219.182 204.256 219.182 204.256 213.218C204.256 207.254 197.686 207.254 197.686 201.291C197.686 195.327 204.256 195.324 204.256 189.36C204.256 183.396 197.686 183.397 197.686 177.433C197.686 171.469 204.256 171.469 204.256 165.502C204.256 159.536 197.686 159.539 197.686 153.575C197.686 147.611 204.256 147.611 204.256 141.648C204.256 135.684 197.686 135.684 197.686 129.72C197.686 123.757 204.256 123.754 204.256 117.79C204.256 111.826 197.686 111.826 197.686 105.863C197.686 99.8989 204.256 99.8989 204.256 93.9352C204.256 87.9715 197.686 87.9715 197.686 82.0079C197.686 76.0442 204.256 76.0442 204.256 70.0805C204.256 64.1168 197.686 64.1168 197.686 58.1531C197.686 52.1895 204.256 52.1895 204.256 46.2258C204.256 40.2621 197.686 40.2621 197.686 34.2984C197.686 28.3348 204.256 28.3317 204.256 22.368C204.256 16.4044 197.686 16.4044 197.686 10.4407C197.686 4.477 204.256 4.477 204.256 -1.48972C204.256 -7.45644 197.686 -7.4534 197.686 -13.4171C197.686 -19.3808 204.256 -19.3808 204.256 -25.3444C204.256 -31.3081 197.686 -31.3111 197.686 -37.2748C197.686 -43.2385 204.256 -43.2385 204.256 -49.2022C204.256 -55.1659 197.686 -55.1689 197.686 -61.1326C197.686 -67.0963 204.256 -67.0963 204.256 -73.063C204.256 -79.0297 197.686 -79.0267 197.686 -84.9903C197.686 -90.954 204.256 -90.9541 204.256 -96.9177C204.256 -102.881 197.686 -102.884 197.686 -108.848C197.686 -114.812 204.256 -114.815 204.256 -120.779C204.256 -126.742 197.686 -126.742 197.686 -132.709C197.686 -138.676 204.256 -138.673 204.256 -144.639C204.256 -150.606 197.686 -150.606 197.686 -156.57" stroke="#FF9140" stroke-width="0.5" stroke-miterlimit="10"/>
<path d="M206.256 249C206.256 243.036 212.826 243.036 212.826 237.073C212.826 231.109 206.256 231.109 206.256 225.145C206.256 219.182 212.826 219.182 212.826 213.218C212.826 207.254 206.256 207.254 206.256 201.291C206.256 195.327 212.826 195.324 212.826 189.36C212.826 183.396 206.256 183.397 206.256 177.433C206.256 171.469 212.826 171.469 212.826 165.502C212.826 159.536 206.256 159.539 206.256 153.575C206.256 147.611 212.826 147.611 212.826 141.648C212.826 135.684 206.256 135.684 206.256 129.72C206.256 123.757 212.826 123.754 212.826 117.79C212.826 111.826 206.256 111.826 206.256 105.863C206.256 99.8989 212.826 99.8989 212.826 93.9352C212.826 87.9715 206.256 87.9715 206.256 82.0079C206.256 76.0442 212.826 76.0442 212.826 70.0805C212.826 64.1168 206.256 64.1168 206.256 58.1531C206.256 52.1895 212.826 52.1895 212.826 46.2258C212.826 40.2621 206.256 40.2621 206.256 34.2984C206.256 28.3348 212.826 28.3317 212.826 22.368C212.826 16.4044 206.256 16.4044 206.256 10.4407C206.256 4.477 212.826 4.477 212.826 -1.48972C212.826 -7.45644 206.256 -7.4534 206.256 -13.4171C206.256 -19.3808 212.826 -19.3808 212.826 -25.3444C212.826 -31.3081 206.256 -31.3111 206.256 -37.2748C206.256 -43.2385 212.826 -43.2385 212.826 -49.2022C212.826 -55.1659 206.256 -55.1689 206.256 -61.1326C206.256 -67.0963 212.826 -67.0963 212.826 -73.063C212.826 -79.0297 206.256 -79.0267 206.256 -84.9903C206.256 -90.954 212.826 -90.9541 212.826 -96.9177C212.826 -102.881 206.256 -102.884 206.256 -108.848C206.256 -114.812 212.826 -114.815 212.826 -120.779C212.826 -126.742 206.256 -126.742 206.256 -132.709C206.256 -138.676 212.826 -138.673 212.826 -144.639C212.826 -150.606 206.256 -150.606 206.256 -156.57" stroke="#FF9140" stroke-width="0.5" stroke-miterlimit="10"/>
<path d="M214.826 249C214.826 243.036 221.396 243.036 221.396 237.073C221.396 231.109 214.826 231.109 214.826 225.145C214.826 219.182 221.396 219.182 221.396 213.218C221.396 207.254 214.826 207.254 214.826 201.291C214.826 195.327 221.396 195.324 221.396 189.36C221.396 183.396 214.826 183.397 214.826 177.433C214.826 171.469 221.396 171.469 221.396 165.502C221.396 159.536 214.826 159.539 214.826 153.575C214.826 147.611 221.396 147.611 221.396 141.648C221.396 135.684 214.826 135.684 214.826 129.72C214.826 123.757 221.396 123.754 221.396 117.79C221.396 111.826 214.826 111.826 214.826 105.863C214.826 99.8989 221.396 99.8989 221.396 93.9352C221.396 87.9715 214.826 87.9715 214.826 82.0079C214.826 76.0442 221.396 76.0442 221.396 70.0805C221.396 64.1168 214.826 64.1168 214.826 58.1531C214.826 52.1895 221.396 52.1895 221.396 46.2258C221.396 40.2621 214.826 40.2621 214.826 34.2984C214.826 28.3348 221.396 28.3317 221.396 22.368C221.396 16.4044 214.826 16.4044 214.826 10.4407C214.826 4.477 221.396 4.477 221.396 -1.48972C221.396 -7.45644 214.826 -7.4534 214.826 -13.4171C214.826 -19.3808 221.396 -19.3808 221.396 -25.3444C221.396 -31.3081 214.826 -31.3111 214.826 -37.2748C214.826 -43.2385 221.396 -43.2385 221.396 -49.2022C221.396 -55.1659 214.826 -55.1689 214.826 -61.1326C214.826 -67.0963 221.396 -67.0963 221.396 -73.063C221.396 -79.0297 214.826 -79.0267 214.826 -84.9903C214.826 -90.954 221.396 -90.9541 221.396 -96.9177C221.396 -102.881 214.826 -102.884 214.826 -108.848C214.826 -114.812 221.396 -114.815 221.396 -120.779C221.396 -126.742 214.826 -126.742 214.826 -132.709C214.826 -138.676 221.396 -138.673 221.396 -144.639C221.396 -150.606 214.826 -150.606 214.826 -156.57" stroke="#FF9140" stroke-width="0.5" stroke-miterlimit="10"/>
<path d="M223.396 249C223.396 243.036 229.967 243.036 229.967 237.073C229.967 231.109 223.396 231.109 223.396 225.145C223.396 219.182 229.967 219.182 229.967 213.218C229.967 207.254 223.396 207.254 223.396 201.291C223.396 195.327 229.967 195.324 229.967 189.36C229.967 183.396 223.396 183.397 223.396 177.433C223.396 171.469 229.967 171.469 229.967 165.502C229.967 159.536 223.396 159.539 223.396 153.575C223.396 147.611 229.967 147.611 229.967 141.648C229.967 135.684 223.396 135.684 223.396 129.72C223.396 123.757 229.967 123.754 229.967 117.79C229.967 111.826 223.396 111.826 223.396 105.863C223.396 99.8989 229.967 99.8989 229.967 93.9352C229.967 87.9715 223.396 87.9715 223.396 82.0079C223.396 76.0442 229.967 76.0442 229.967 70.0805C229.967 64.1168 223.396 64.1168 223.396 58.1531C223.396 52.1895 229.967 52.1895 229.967 46.2258C229.967 40.2621 223.396 40.2621 223.396 34.2984C223.396 28.3348 229.967 28.3317 229.967 22.368C229.967 16.4044 223.396 16.4044 223.396 10.4407C223.396 4.477 229.967 4.477 229.967 -1.48972C229.967 -7.45644 223.396 -7.4534 223.396 -13.4171C223.396 -19.3808 229.967 -19.3808 229.967 -25.3444C229.967 -31.3081 223.396 -31.3111 223.396 -37.2748C223.396 -43.2385 229.967 -43.2385 229.967 -49.2022C229.967 -55.1659 223.396 -55.1689 223.396 -61.1326C223.396 -67.0963 229.967 -67.0963 229.967 -73.063C229.967 -79.0297 223.396 -79.0267 223.396 -84.9903C223.396 -90.954 229.967 -90.9541 229.967 -96.9177C229.967 -102.881 223.396 -102.884 223.396 -108.848C223.396 -114.812 229.967 -114.815 229.967 -120.779C229.967 -126.742 223.396 -126.742 223.396 -132.709C223.396 -138.676 229.967 -138.673 229.967 -144.639C229.967 -150.606 223.396 -150.606 223.396 -156.57" stroke="#FF9140" stroke-width="0.5" stroke-miterlimit="10"/>
<path d="M231.966 249C231.966 243.036 238.537 243.036 238.537 237.073C238.537 231.109 231.966 231.109 231.966 225.145C231.966 219.182 238.537 219.182 238.537 213.218C238.537 207.254 231.966 207.254 231.966 201.291C231.966 195.327 238.537 195.324 238.537 189.36C238.537 183.396 231.966 183.397 231.966 177.433C231.966 171.469 238.537 171.469 238.537 165.502C238.537 159.536 231.966 159.539 231.966 153.575C231.966 147.611 238.537 147.611 238.537 141.648C238.537 135.684 231.966 135.684 231.966 129.72C231.966 123.757 238.537 123.754 238.537 117.79C238.537 111.826 231.966 111.826 231.966 105.863C231.966 99.8989 238.537 99.8989 238.537 93.9352C238.537 87.9715 231.966 87.9715 231.966 82.0079C231.966 76.0442 238.537 76.0442 238.537 70.0805C238.537 64.1168 231.966 64.1168 231.966 58.1531C231.966 52.1895 238.537 52.1895 238.537 46.2258C238.537 40.2621 231.966 40.2621 231.966 34.2984C231.966 28.3348 238.537 28.3317 238.537 22.368C238.537 16.4044 231.966 16.4044 231.966 10.4407C231.966 4.477 238.537 4.477 238.537 -1.48972C238.537 -7.45644 231.966 -7.4534 231.966 -13.4171C231.966 -19.3808 238.537 -19.3808 238.537 -25.3444C238.537 -31.3081 231.966 -31.3111 231.966 -37.2748C231.966 -43.2385 238.537 -43.2385 238.537 -49.2022C238.537 -55.1659 231.966 -55.1689 231.966 -61.1326C231.966 -67.0963 238.537 -67.0963 238.537 -73.063C238.537 -79.0297 231.966 -79.0267 231.966 -84.9903C231.966 -90.954 238.537 -90.9541 238.537 -96.9177C238.537 -102.881 231.966 -102.884 231.966 -108.848C231.966 -114.812 238.537 -114.815 238.537 -120.779C238.537 -126.742 231.966 -126.742 231.966 -132.709C231.966 -138.676 238.537 -138.673 238.537 -144.639C238.537 -150.606 231.966 -150.606 231.966 -156.57" stroke="#FF9140" stroke-width="0.5" stroke-miterlimit="10"/>
<path d="M240.537 249C240.537 243.036 247.107 243.036 247.107 237.073C247.107 231.109 240.537 231.109 240.537 225.145C240.537 219.182 247.107 219.182 247.107 213.218C247.107 207.254 240.537 207.254 240.537 201.291C240.537 195.327 247.107 195.324 247.107 189.36C247.107 183.396 240.537 183.397 240.537 177.433C240.537 171.469 247.107 171.469 247.107 165.502C247.107 159.536 240.537 159.539 240.537 153.575C240.537 147.611 247.107 147.611 247.107 141.648C247.107 135.684 240.537 135.684 240.537 129.72C240.537 123.757 247.107 123.754 247.107 117.79C247.107 111.826 240.537 111.826 240.537 105.863C240.537 99.8989 247.107 99.8989 247.107 93.9352C247.107 87.9715 240.537 87.9715 240.537 82.0079C240.537 76.0442 247.107 76.0442 247.107 70.0805C247.107 64.1168 240.537 64.1168 240.537 58.1531C240.537 52.1895 247.107 52.1895 247.107 46.2258C247.107 40.2621 240.537 40.2621 240.537 34.2984C240.537 28.3348 247.107 28.3317 247.107 22.368C247.107 16.4044 240.537 16.4044 240.537 10.4407C240.537 4.477 247.107 4.477 247.107 -1.48972C247.107 -7.45644 240.537 -7.4534 240.537 -13.4171C240.537 -19.3808 247.107 -19.3808 247.107 -25.3444C247.107 -31.3081 240.537 -31.3111 240.537 -37.2748C240.537 -43.2385 247.107 -43.2385 247.107 -49.2022C247.107 -55.1659 240.537 -55.1689 240.537 -61.1326C240.537 -67.0963 247.107 -67.0963 247.107 -73.063C247.107 -79.0297 240.537 -79.0267 240.537 -84.9903C240.537 -90.954 247.107 -90.9541 247.107 -96.9177C247.107 -102.881 240.537 -102.884 240.537 -108.848C240.537 -114.812 247.107 -114.815 247.107 -120.779C247.107 -126.742 240.537 -126.742 240.537 -132.709C240.537 -138.676 247.107 -138.673 247.107 -144.639C247.107 -150.606 240.537 -150.606 240.537 -156.57" stroke="#FF9140" stroke-width="0.5" stroke-miterlimit="10"/>
<path d="M249.107 249C249.107 243.036 255.677 243.036 255.677 237.073C255.677 231.109 249.107 231.109 249.107 225.145C249.107 219.182 255.677 219.182 255.677 213.218C255.677 207.254 249.107 207.254 249.107 201.291C249.107 195.327 255.677 195.324 255.677 189.36C255.677 183.396 249.107 183.397 249.107 177.433C249.107 171.469 255.677 171.469 255.677 165.502C255.677 159.536 249.107 159.539 249.107 153.575C249.107 147.611 255.677 147.611 255.677 141.648C255.677 135.684 249.107 135.684 249.107 129.72C249.107 123.757 255.677 123.754 255.677 117.79C255.677 111.826 249.107 111.826 249.107 105.863C249.107 99.8989 255.677 99.8989 255.677 93.9352C255.677 87.9715 249.107 87.9715 249.107 82.0079C249.107 76.0442 255.677 76.0442 255.677 70.0805C255.677 64.1168 249.107 64.1168 249.107 58.1531C249.107 52.1895 255.677 52.1895 255.677 46.2258C255.677 40.2621 249.107 40.2621 249.107 34.2984C249.107 28.3348 255.677 28.3317 255.677 22.368C255.677 16.4044 249.107 16.4044 249.107 10.4407C249.107 4.477 255.677 4.477 255.677 -1.48972C255.677 -7.45644 249.107 -7.4534 249.107 -13.4171C249.107 -19.3808 255.677 -19.3808 255.677 -25.3444C255.677 -31.3081 249.107 -31.3111 249.107 -37.2748C249.107 -43.2385 255.677 -43.2385 255.677 -49.2022C255.677 -55.1659 249.107 -55.1689 249.107 -61.1326C249.107 -67.0963 255.677 -67.0963 255.677 -73.063C255.677 -79.0297 249.107 -79.0267 249.107 -84.9903C249.107 -90.954 255.677 -90.9541 255.677 -96.9177C255.677 -102.881 249.107 -102.884 249.107 -108.848C249.107 -114.812 255.677 -114.815 255.677 -120.779C255.677 -126.742 249.107 -126.742 249.107 -132.709C249.107 -138.676 255.677 -138.673 255.677 -144.639C255.677 -150.606 249.107 -150.606 249.107 -156.57" stroke="#FF9140" stroke-width="0.5" stroke-miterlimit="10"/>
<path d="M257.677 249C257.677 243.036 264.247 243.036 264.247 237.073C264.247 231.109 257.677 231.109 257.677 225.145C257.677 219.182 264.247 219.182 264.247 213.218C264.247 207.254 257.677 207.254 257.677 201.291C257.677 195.327 264.247 195.324 264.247 189.36C264.247 183.396 257.677 183.397 257.677 177.433C257.677 171.469 264.247 171.469 264.247 165.502C264.247 159.536 257.677 159.539 257.677 153.575C257.677 147.611 264.247 147.611 264.247 141.648C264.247 135.684 257.677 135.684 257.677 129.72C257.677 123.757 264.247 123.754 264.247 117.79C264.247 111.826 257.677 111.826 257.677 105.863C257.677 99.8989 264.247 99.8989 264.247 93.9352C264.247 87.9715 257.677 87.9715 257.677 82.0079C257.677 76.0442 264.247 76.0442 264.247 70.0805C264.247 64.1168 257.677 64.1168 257.677 58.1531C257.677 52.1895 264.247 52.1895 264.247 46.2258C264.247 40.2621 257.677 40.2621 257.677 34.2984C257.677 28.3348 264.247 28.3317 264.247 22.368C264.247 16.4044 257.677 16.4044 257.677 10.4407C257.677 4.477 264.247 4.477 264.247 -1.48972C264.247 -7.45644 257.677 -7.4534 257.677 -13.4171C257.677 -19.3808 264.247 -19.3808 264.247 -25.3444C264.247 -31.3081 257.677 -31.3111 257.677 -37.2748C257.677 -43.2385 264.247 -43.2385 264.247 -49.2022C264.247 -55.1659 257.677 -55.1689 257.677 -61.1326C257.677 -67.0963 264.247 -67.0963 264.247 -73.063C264.247 -79.0297 257.677 -79.0267 257.677 -84.9903C257.677 -90.954 264.247 -90.9541 264.247 -96.9177C264.247 -102.881 257.677 -102.884 257.677 -108.848C257.677 -114.812 264.247 -114.815 264.247 -120.779C264.247 -126.742 257.677 -126.742 257.677 -132.709C257.677 -138.676 264.247 -138.673 264.247 -144.639C264.247 -150.606 257.677 -150.606 257.677 -156.57" stroke="#FF9140" stroke-width="0.5" stroke-miterlimit="10"/>
<path d="M266.248 249C266.248 243.036 272.818 243.036 272.818 237.073C272.818 231.109 266.248 231.109 266.248 225.145C266.248 219.182 272.818 219.182 272.818 213.218C272.818 207.254 266.248 207.254 266.248 201.291C266.248 195.327 272.818 195.324 272.818 189.36C272.818 183.396 266.248 183.397 266.248 177.433C266.248 171.469 272.818 171.469 272.818 165.502C272.818 159.536 266.248 159.539 266.248 153.575C266.248 147.611 272.818 147.611 272.818 141.648C272.818 135.684 266.248 135.684 266.248 129.72C266.248 123.757 272.818 123.754 272.818 117.79C272.818 111.826 266.248 111.826 266.248 105.863C266.248 99.8989 272.818 99.8989 272.818 93.9352C272.818 87.9715 266.248 87.9715 266.248 82.0079C266.248 76.0442 272.818 76.0442 272.818 70.0805C272.818 64.1168 266.248 64.1168 266.248 58.1531C266.248 52.1895 272.818 52.1895 272.818 46.2258C272.818 40.2621 266.248 40.2621 266.248 34.2984C266.248 28.3348 272.818 28.3317 272.818 22.368C272.818 16.4044 266.248 16.4044 266.248 10.4407C266.248 4.477 272.818 4.477 272.818 -1.48972C272.818 -7.45644 266.248 -7.4534 266.248 -13.4171C266.248 -19.3808 272.818 -19.3808 272.818 -25.3444C272.818 -31.3081 266.248 -31.3111 266.248 -37.2748C266.248 -43.2385 272.818 -43.2385 272.818 -49.2022C272.818 -55.1659 266.248 -55.1689 266.248 -61.1326C266.248 -67.0963 272.818 -67.0963 272.818 -73.063C272.818 -79.0297 266.248 -79.0267 266.248 -84.9903C266.248 -90.954 272.818 -90.9541 272.818 -96.9177C272.818 -102.881 266.248 -102.884 266.248 -108.848C266.248 -114.812 272.818 -114.815 272.818 -120.779C272.818 -126.742 266.248 -126.742 266.248 -132.709C266.248 -138.676 272.818 -138.673 272.818 -144.639C272.818 -150.606 266.248 -150.606 266.248 -156.57" stroke="#FF9140" stroke-width="0.5" stroke-miterlimit="10"/>
<path d="M274.817 249C274.817 243.036 281.388 243.036 281.388 237.073C281.388 231.109 274.817 231.109 274.817 225.145C274.817 219.182 281.388 219.182 281.388 213.218C281.388 207.254 274.817 207.254 274.817 201.291C274.817 195.327 281.388 195.324 281.388 189.36C281.388 183.396 274.817 183.397 274.817 177.433C274.817 171.469 281.388 171.469 281.388 165.502C281.388 159.536 274.817 159.539 274.817 153.575C274.817 147.611 281.388 147.611 281.388 141.648C281.388 135.684 274.817 135.684 274.817 129.72C274.817 123.757 281.388 123.754 281.388 117.79C281.388 111.826 274.817 111.826 274.817 105.863C274.817 99.8989 281.388 99.8989 281.388 93.9352C281.388 87.9715 274.817 87.9715 274.817 82.0079C274.817 76.0442 281.388 76.0442 281.388 70.0805C281.388 64.1168 274.817 64.1168 274.817 58.1531C274.817 52.1895 281.388 52.1895 281.388 46.2258C281.388 40.2621 274.817 40.2621 274.817 34.2984C274.817 28.3348 281.388 28.3317 281.388 22.368C281.388 16.4044 274.817 16.4044 274.817 10.4407C274.817 4.477 281.388 4.477 281.388 -1.48972C281.388 -7.45644 274.817 -7.4534 274.817 -13.4171C274.817 -19.3808 281.388 -19.3808 281.388 -25.3444C281.388 -31.3081 274.817 -31.3111 274.817 -37.2748C274.817 -43.2385 281.388 -43.2385 281.388 -49.2022C281.388 -55.1659 274.817 -55.1689 274.817 -61.1326C274.817 -67.0963 281.388 -67.0963 281.388 -73.063C281.388 -79.0297 274.817 -79.0267 274.817 -84.9903C274.817 -90.954 281.388 -90.9541 281.388 -96.9177C281.388 -102.881 274.817 -102.884 274.817 -108.848C274.817 -114.812 281.388 -114.815 281.388 -120.779C281.388 -126.742 274.817 -126.742 274.817 -132.709C274.817 -138.676 281.388 -138.673 281.388 -144.639C281.388 -150.606 274.817 -150.606 274.817 -156.57" stroke="#FF9140" stroke-width="0.5" stroke-miterlimit="10"/>
<path d="M283.388 249C283.388 243.036 289.958 243.036 289.958 237.073C289.958 231.109 283.388 231.109 283.388 225.145C283.388 219.182 289.958 219.182 289.958 213.218C289.958 207.254 283.388 207.254 283.388 201.291C283.388 195.327 289.958 195.324 289.958 189.36C289.958 183.396 283.388 183.397 283.388 177.433C283.388 171.469 289.958 171.469 289.958 165.502C289.958 159.536 283.388 159.539 283.388 153.575C283.388 147.611 289.958 147.611 289.958 141.648C289.958 135.684 283.388 135.684 283.388 129.72C283.388 123.757 289.958 123.754 289.958 117.79C289.958 111.826 283.388 111.826 283.388 105.863C283.388 99.8989 289.958 99.8989 289.958 93.9352C289.958 87.9715 283.388 87.9715 283.388 82.0079C283.388 76.0442 289.958 76.0442 289.958 70.0805C289.958 64.1168 283.388 64.1168 283.388 58.1531C283.388 52.1895 289.958 52.1895 289.958 46.2258C289.958 40.2621 283.388 40.2621 283.388 34.2984C283.388 28.3348 289.958 28.3317 289.958 22.368C289.958 16.4044 283.388 16.4044 283.388 10.4407C283.388 4.477 289.958 4.477 289.958 -1.48972C289.958 -7.45644 283.388 -7.4534 283.388 -13.4171C283.388 -19.3808 289.958 -19.3808 289.958 -25.3444C289.958 -31.3081 283.388 -31.3111 283.388 -37.2748C283.388 -43.2385 289.958 -43.2385 289.958 -49.2022C289.958 -55.1659 283.388 -55.1689 283.388 -61.1326C283.388 -67.0963 289.958 -67.0963 289.958 -73.063C289.958 -79.0297 283.388 -79.0267 283.388 -84.9903C283.388 -90.954 289.958 -90.9541 289.958 -96.9177C289.958 -102.881 283.388 -102.884 283.388 -108.848C283.388 -114.812 289.958 -114.815 289.958 -120.779C289.958 -126.742 283.388 -126.742 283.388 -132.709C283.388 -138.676 289.958 -138.673 289.958 -144.639C289.958 -150.606 283.388 -150.606 283.388 -156.57" stroke="#FF9140" stroke-width="0.5" stroke-miterlimit="10"/>
<path d="M291.958 249C291.958 243.036 298.528 243.036 298.528 237.073C298.528 231.109 291.958 231.109 291.958 225.145C291.958 219.182 298.528 219.182 298.528 213.218C298.528 207.254 291.958 207.254 291.958 201.291C291.958 195.327 298.528 195.324 298.528 189.36C298.528 183.396 291.958 183.397 291.958 177.433C291.958 171.469 298.528 171.469 298.528 165.502C298.528 159.536 291.958 159.539 291.958 153.575C291.958 147.611 298.528 147.611 298.528 141.648C298.528 135.684 291.958 135.684 291.958 129.72C291.958 123.757 298.528 123.754 298.528 117.79C298.528 111.826 291.958 111.826 291.958 105.863C291.958 99.8989 298.528 99.8989 298.528 93.9352C298.528 87.9715 291.958 87.9715 291.958 82.0079C291.958 76.0442 298.528 76.0442 298.528 70.0805C298.528 64.1168 291.958 64.1168 291.958 58.1531C291.958 52.1895 298.528 52.1895 298.528 46.2258C298.528 40.2621 291.958 40.2621 291.958 34.2984C291.958 28.3348 298.528 28.3317 298.528 22.368C298.528 16.4044 291.958 16.4044 291.958 10.4407C291.958 4.477 298.528 4.477 298.528 -1.48972C298.528 -7.45644 291.958 -7.4534 291.958 -13.4171C291.958 -19.3808 298.528 -19.3808 298.528 -25.3444C298.528 -31.3081 291.958 -31.3111 291.958 -37.2748C291.958 -43.2385 298.528 -43.2385 298.528 -49.2022C298.528 -55.1659 291.958 -55.1689 291.958 -61.1326C291.958 -67.0963 298.528 -67.0963 298.528 -73.063C298.528 -79.0297 291.958 -79.0267 291.958 -84.9903C291.958 -90.954 298.528 -90.9541 298.528 -96.9177C298.528 -102.881 291.958 -102.884 291.958 -108.848C291.958 -114.812 298.528 -114.815 298.528 -120.779C298.528 -126.742 291.958 -126.742 291.958 -132.709C291.958 -138.676 298.528 -138.673 298.528 -144.639C298.528 -150.606 291.958 -150.606 291.958 -156.57" stroke="#FF9140" stroke-width="0.5" stroke-miterlimit="10"/>
<path d="M300.528 249C300.528 243.036 307.099 243.036 307.099 237.073C307.099 231.109 300.528 231.109 300.528 225.145C300.528 219.182 307.099 219.182 307.099 213.218C307.099 207.254 300.528 207.254 300.528 201.291C300.528 195.327 307.099 195.324 307.099 189.36C307.099 183.396 300.528 183.397 300.528 177.433C300.528 171.469 307.099 171.469 307.099 165.502C307.099 159.536 300.528 159.539 300.528 153.575C300.528 147.611 307.099 147.611 307.099 141.648C307.099 135.684 300.528 135.684 300.528 129.72C300.528 123.757 307.099 123.754 307.099 117.79C307.099 111.826 300.528 111.826 300.528 105.863C300.528 99.8989 307.099 99.8989 307.099 93.9352C307.099 87.9715 300.528 87.9715 300.528 82.0079C300.528 76.0442 307.099 76.0442 307.099 70.0805C307.099 64.1168 300.528 64.1168 300.528 58.1531C300.528 52.1895 307.099 52.1895 307.099 46.2258C307.099 40.2621 300.528 40.2621 300.528 34.2984C300.528 28.3348 307.099 28.3317 307.099 22.368C307.099 16.4044 300.528 16.4044 300.528 10.4407C300.528 4.477 307.099 4.477 307.099 -1.48972C307.099 -7.45644 300.528 -7.4534 300.528 -13.4171C300.528 -19.3808 307.099 -19.3808 307.099 -25.3444C307.099 -31.3081 300.528 -31.3111 300.528 -37.2748C300.528 -43.2385 307.099 -43.2385 307.099 -49.2022C307.099 -55.1659 300.528 -55.1689 300.528 -61.1326C300.528 -67.0963 307.099 -67.0963 307.099 -73.063C307.099 -79.0297 300.528 -79.0267 300.528 -84.9903C300.528 -90.954 307.099 -90.9541 307.099 -96.9177C307.099 -102.881 300.528 -102.884 300.528 -108.848C300.528 -114.812 307.099 -114.815 307.099 -120.779C307.099 -126.742 300.528 -126.742 300.528 -132.709C300.528 -138.676 307.099 -138.673 307.099 -144.639C307.099 -150.606 300.528 -150.606 300.528 -156.57" stroke="#FF9140" stroke-width="0.5" stroke-miterlimit="10"/>
<path d="M309.099 249C309.099 243.036 315.669 243.036 315.669 237.073C315.669 231.109 309.099 231.109 309.099 225.145C309.099 219.182 315.669 219.182 315.669 213.218C315.669 207.254 309.099 207.254 309.099 201.291C309.099 195.327 315.669 195.324 315.669 189.36C315.669 183.396 309.099 183.397 309.099 177.433C309.099 171.469 315.669 171.469 315.669 165.502C315.669 159.536 309.099 159.539 309.099 153.575C309.099 147.611 315.669 147.611 315.669 141.648C315.669 135.684 309.099 135.684 309.099 129.72C309.099 123.757 315.669 123.754 315.669 117.79C315.669 111.826 309.099 111.826 309.099 105.863C309.099 99.8989 315.669 99.8989 315.669 93.9352C315.669 87.9715 309.099 87.9715 309.099 82.0079C309.099 76.0442 315.669 76.0442 315.669 70.0805C315.669 64.1168 309.099 64.1168 309.099 58.1531C309.099 52.1895 315.669 52.1895 315.669 46.2258C315.669 40.2621 309.099 40.2621 309.099 34.2984C309.099 28.3348 315.669 28.3317 315.669 22.368C315.669 16.4044 309.099 16.4044 309.099 10.4407C309.099 4.477 315.669 4.477 315.669 -1.48972C315.669 -7.45644 309.099 -7.4534 309.099 -13.4171C309.099 -19.3808 315.669 -19.3808 315.669 -25.3444C315.669 -31.3081 309.099 -31.3111 309.099 -37.2748C309.099 -43.2385 315.669 -43.2385 315.669 -49.2022C315.669 -55.1659 309.099 -55.1689 309.099 -61.1326C309.099 -67.0963 315.669 -67.0963 315.669 -73.063C315.669 -79.0297 309.099 -79.0267 309.099 -84.9903C309.099 -90.954 315.669 -90.9541 315.669 -96.9177C315.669 -102.881 309.099 -102.884 309.099 -108.848C309.099 -114.812 315.669 -114.815 315.669 -120.779C315.669 -126.742 309.099 -126.742 309.099 -132.709C309.099 -138.676 315.669 -138.673 315.669 -144.639C315.669 -150.606 309.099 -150.606 309.099 -156.57" stroke="#FF9140" stroke-width="0.5" stroke-miterlimit="10"/>
<path d="M317.669 249C317.669 243.036 324.239 243.036 324.239 237.073C324.239 231.109 317.669 231.109 317.669 225.145C317.669 219.182 324.239 219.182 324.239 213.218C324.239 207.254 317.669 207.254 317.669 201.291C317.669 195.327 324.239 195.324 324.239 189.36C324.239 183.396 317.669 183.397 317.669 177.433C317.669 171.469 324.239 171.469 324.239 165.502C324.239 159.536 317.669 159.539 317.669 153.575C317.669 147.611 324.239 147.611 324.239 141.648C324.239 135.684 317.669 135.684 317.669 129.72C317.669 123.757 324.239 123.754 324.239 117.79C324.239 111.826 317.669 111.826 317.669 105.863C317.669 99.8989 324.239 99.8989 324.239 93.9352C324.239 87.9715 317.669 87.9715 317.669 82.0079C317.669 76.0442 324.239 76.0442 324.239 70.0805C324.239 64.1168 317.669 64.1168 317.669 58.1531C317.669 52.1895 324.239 52.1895 324.239 46.2258C324.239 40.2621 317.669 40.2621 317.669 34.2984C317.669 28.3348 324.239 28.3317 324.239 22.368C324.239 16.4044 317.669 16.4044 317.669 10.4407C317.669 4.477 324.239 4.477 324.239 -1.48972C324.239 -7.45644 317.669 -7.4534 317.669 -13.4171C317.669 -19.3808 324.239 -19.3808 324.239 -25.3444C324.239 -31.3081 317.669 -31.3111 317.669 -37.2748C317.669 -43.2385 324.239 -43.2385 324.239 -49.2022C324.239 -55.1659 317.669 -55.1689 317.669 -61.1326C317.669 -67.0963 324.239 -67.0963 324.239 -73.063C324.239 -79.0297 317.669 -79.0267 317.669 -84.9903C317.669 -90.954 324.239 -90.9541 324.239 -96.9177C324.239 -102.881 317.669 -102.884 317.669 -108.848C317.669 -114.812 324.239 -114.815 324.239 -120.779C324.239 -126.742 317.669 -126.742 317.669 -132.709C317.669 -138.676 324.239 -138.673 324.239 -144.639C324.239 -150.606 317.669 -150.606 317.669 -156.57" stroke="#FF9140" stroke-width="0.5" stroke-miterlimit="10"/>
<path d="M326.239 249C326.239 243.036 332.809 243.036 332.809 237.073C332.809 231.109 326.239 231.109 326.239 225.145C326.239 219.182 332.809 219.182 332.809 213.218C332.809 207.254 326.239 207.254 326.239 201.291C326.239 195.327 332.809 195.324 332.809 189.36C332.809 183.396 326.239 183.397 326.239 177.433C326.239 171.469 332.809 171.469 332.809 165.502C332.809 159.536 326.239 159.539 326.239 153.575C326.239 147.611 332.809 147.611 332.809 141.648C332.809 135.684 326.239 135.684 326.239 129.72C326.239 123.757 332.809 123.754 332.809 117.79C332.809 111.826 326.239 111.826 326.239 105.863C326.239 99.8989 332.809 99.8989 332.809 93.9352C332.809 87.9715 326.239 87.9715 326.239 82.0079C326.239 76.0442 332.809 76.0442 332.809 70.0805C332.809 64.1168 326.239 64.1168 326.239 58.1531C326.239 52.1895 332.809 52.1895 332.809 46.2258C332.809 40.2621 326.239 40.2621 326.239 34.2984C326.239 28.3348 332.809 28.3317 332.809 22.368C332.809 16.4044 326.239 16.4044 326.239 10.4407C326.239 4.477 332.809 4.477 332.809 -1.48972C332.809 -7.45644 326.239 -7.4534 326.239 -13.4171C326.239 -19.3808 332.809 -19.3808 332.809 -25.3444C332.809 -31.3081 326.239 -31.3111 326.239 -37.2748C326.239 -43.2385 332.809 -43.2385 332.809 -49.2022C332.809 -55.1659 326.239 -55.1689 326.239 -61.1326C326.239 -67.0963 332.809 -67.0963 332.809 -73.063C332.809 -79.0297 326.239 -79.0267 326.239 -84.9903C326.239 -90.954 332.809 -90.9541 332.809 -96.9177C332.809 -102.881 326.239 -102.884 326.239 -108.848C326.239 -114.812 332.809 -114.815 332.809 -120.779C332.809 -126.742 326.239 -126.742 326.239 -132.709C326.239 -138.676 332.809 -138.673 332.809 -144.639C332.809 -150.606 326.239 -150.606 326.239 -156.57" stroke="#FF9140" stroke-width="0.5" stroke-miterlimit="10"/>
<path d="M334.809 249C334.809 243.036 341.379 243.036 341.379 237.073C341.379 231.109 334.809 231.109 334.809 225.145C334.809 219.182 341.379 219.182 341.379 213.218C341.379 207.254 334.809 207.254 334.809 201.291C334.809 195.327 341.379 195.324 341.379 189.36C341.379 183.396 334.809 183.397 334.809 177.433C334.809 171.469 341.379 171.469 341.379 165.502C341.379 159.536 334.809 159.539 334.809 153.575C334.809 147.611 341.379 147.611 341.379 141.648C341.379 135.684 334.809 135.684 334.809 129.72C334.809 123.757 341.379 123.754 341.379 117.79C341.379 111.826 334.809 111.826 334.809 105.863C334.809 99.8989 341.379 99.8989 341.379 93.9352C341.379 87.9715 334.809 87.9715 334.809 82.0079C334.809 76.0442 341.379 76.0442 341.379 70.0805C341.379 64.1168 334.809 64.1168 334.809 58.1531C334.809 52.1895 341.379 52.1895 341.379 46.2258C341.379 40.2621 334.809 40.2621 334.809 34.2984C334.809 28.3348 341.379 28.3317 341.379 22.368C341.379 16.4044 334.809 16.4044 334.809 10.4407C334.809 4.477 341.379 4.477 341.379 -1.48972C341.379 -7.45644 334.809 -7.4534 334.809 -13.4171C334.809 -19.3808 341.379 -19.3808 341.379 -25.3444C341.379 -31.3081 334.809 -31.3111 334.809 -37.2748C334.809 -43.2385 341.379 -43.2385 341.379 -49.2022C341.379 -55.1659 334.809 -55.1689 334.809 -61.1326C334.809 -67.0963 341.379 -67.0963 341.379 -73.063C341.379 -79.0297 334.809 -79.0267 334.809 -84.9903C334.809 -90.954 341.379 -90.9541 341.379 -96.9177C341.379 -102.881 334.809 -102.884 334.809 -108.848C334.809 -114.812 341.379 -114.815 341.379 -120.779C341.379 -126.742 334.809 -126.742 334.809 -132.709C334.809 -138.676 341.379 -138.673 341.379 -144.639C341.379 -150.606 334.809 -150.606 334.809 -156.57" stroke="#FF9140" stroke-width="0.5" stroke-miterlimit="10"/>
<path d="M343.379 249C343.379 243.036 349.95 243.036 349.95 237.073C349.95 231.109 343.379 231.109 343.379 225.145C343.379 219.182 349.95 219.182 349.95 213.218C349.95 207.254 343.379 207.254 343.379 201.291C343.379 195.327 349.95 195.324 349.95 189.36C349.95 183.396 343.379 183.397 343.379 177.433C343.379 171.469 349.95 171.469 349.95 165.502C349.95 159.536 343.379 159.539 343.379 153.575C343.379 147.611 349.95 147.611 349.95 141.648C349.95 135.684 343.379 135.684 343.379 129.72C343.379 123.757 349.95 123.754 349.95 117.79C349.95 111.826 343.379 111.826 343.379 105.863C343.379 99.8989 349.95 99.8989 349.95 93.9352C349.95 87.9715 343.379 87.9715 343.379 82.0079C343.379 76.0442 349.95 76.0442 349.95 70.0805C349.95 64.1168 343.379 64.1168 343.379 58.1531C343.379 52.1895 349.95 52.1895 349.95 46.2258C349.95 40.2621 343.379 40.2621 343.379 34.2984C343.379 28.3348 349.95 28.3317 349.95 22.368C349.95 16.4044 343.379 16.4044 343.379 10.4407C343.379 4.477 349.95 4.477 349.95 -1.48972C349.95 -7.45644 343.379 -7.4534 343.379 -13.4171C343.379 -19.3808 349.95 -19.3808 349.95 -25.3444C349.95 -31.3081 343.379 -31.3111 343.379 -37.2748C343.379 -43.2385 349.95 -43.2385 349.95 -49.2022C349.95 -55.1659 343.379 -55.1689 343.379 -61.1326C343.379 -67.0963 349.95 -67.0963 349.95 -73.063C349.95 -79.0297 343.379 -79.0267 343.379 -84.9903C343.379 -90.954 349.95 -90.9541 349.95 -96.9177C349.95 -102.881 343.379 -102.884 343.379 -108.848C343.379 -114.812 349.95 -114.815 349.95 -120.779C349.95 -126.742 343.379 -126.742 343.379 -132.709C343.379 -138.676 349.95 -138.673 349.95 -144.639C349.95 -150.606 343.379 -150.606 343.379 -156.57" stroke="#FF9140" stroke-width="0.5" stroke-miterlimit="10"/>
<path d="M351.95 249C351.95 243.036 358.52 243.036 358.52 237.073C358.52 231.109 351.95 231.109 351.95 225.145C351.95 219.182 358.52 219.182 358.52 213.218C358.52 207.254 351.95 207.254 351.95 201.291C351.95 195.327 358.52 195.324 358.52 189.36C358.52 183.396 351.95 183.397 351.95 177.433C351.95 171.469 358.52 171.469 358.52 165.502C358.52 159.536 351.95 159.539 351.95 153.575C351.95 147.611 358.52 147.611 358.52 141.648C358.52 135.684 351.95 135.684 351.95 129.72C351.95 123.757 358.52 123.754 358.52 117.79C358.52 111.826 351.95 111.826 351.95 105.863C351.95 99.8989 358.52 99.8989 358.52 93.9352C358.52 87.9715 351.95 87.9715 351.95 82.0079C351.95 76.0442 358.52 76.0442 358.52 70.0805C358.52 64.1168 351.95 64.1168 351.95 58.1531C351.95 52.1895 358.52 52.1895 358.52 46.2258C358.52 40.2621 351.95 40.2621 351.95 34.2984C351.95 28.3348 358.52 28.3317 358.52 22.368C358.52 16.4044 351.95 16.4044 351.95 10.4407C351.95 4.477 358.52 4.477 358.52 -1.48972C358.52 -7.45644 351.95 -7.4534 351.95 -13.4171C351.95 -19.3808 358.52 -19.3808 358.52 -25.3444C358.52 -31.3081 351.95 -31.3111 351.95 -37.2748C351.95 -43.2385 358.52 -43.2385 358.52 -49.2022C358.52 -55.1659 351.95 -55.1689 351.95 -61.1326C351.95 -67.0963 358.52 -67.0963 358.52 -73.063C358.52 -79.0297 351.95 -79.0267 351.95 -84.9903C351.95 -90.954 358.52 -90.9541 358.52 -96.9177C358.52 -102.881 351.95 -102.884 351.95 -108.848C351.95 -114.812 358.52 -114.815 358.52 -120.779C358.52 -126.742 351.95 -126.742 351.95 -132.709C351.95 -138.676 358.52 -138.673 358.52 -144.639C358.52 -150.606 351.95 -150.606 351.95 -156.57" stroke="#FF9140" stroke-width="0.5" stroke-miterlimit="10"/>
<path d="M360.52 249C360.52 243.036 367.09 243.036 367.09 237.073C367.09 231.109 360.52 231.109 360.52 225.145C360.52 219.182 367.09 219.182 367.09 213.218C367.09 207.254 360.52 207.254 360.52 201.291C360.52 195.327 367.09 195.324 367.09 189.36C367.09 183.396 360.52 183.397 360.52 177.433C360.52 171.469 367.09 171.469 367.09 165.502C367.09 159.536 360.52 159.539 360.52 153.575C360.52 147.611 367.09 147.611 367.09 141.648C367.09 135.684 360.52 135.684 360.52 129.72C360.52 123.757 367.09 123.754 367.09 117.79C367.09 111.826 360.52 111.826 360.52 105.863C360.52 99.8989 367.09 99.8989 367.09 93.9352C367.09 87.9715 360.52 87.9715 360.52 82.0079C360.52 76.0442 367.09 76.0442 367.09 70.0805C367.09 64.1168 360.52 64.1168 360.52 58.1531C360.52 52.1895 367.09 52.1895 367.09 46.2258C367.09 40.2621 360.52 40.2621 360.52 34.2984C360.52 28.3348 367.09 28.3317 367.09 22.368C367.09 16.4044 360.52 16.4044 360.52 10.4407C360.52 4.477 367.09 4.477 367.09 -1.48972C367.09 -7.45644 360.52 -7.4534 360.52 -13.4171C360.52 -19.3808 367.09 -19.3808 367.09 -25.3444C367.09 -31.3081 360.52 -31.3111 360.52 -37.2748C360.52 -43.2385 367.09 -43.2385 367.09 -49.2022C367.09 -55.1659 360.52 -55.1689 360.52 -61.1326C360.52 -67.0963 367.09 -67.0963 367.09 -73.063C367.09 -79.0297 360.52 -79.0267 360.52 -84.9903C360.52 -90.954 367.09 -90.9541 367.09 -96.9177C367.09 -102.881 360.52 -102.884 360.52 -108.848C360.52 -114.812 367.09 -114.815 367.09 -120.779C367.09 -126.742 360.52 -126.742 360.52 -132.709C360.52 -138.676 367.09 -138.673 367.09 -144.639C367.09 -150.606 360.52 -150.606 360.52 -156.57" stroke="#FF9140" stroke-width="0.5" stroke-miterlimit="10"/>
<path d="M369.09 249C369.09 243.036 375.66 243.036 375.66 237.073C375.66 231.109 369.09 231.109 369.09 225.145C369.09 219.182 375.66 219.182 375.66 213.218C375.66 207.254 369.09 207.254 369.09 201.291C369.09 195.327 375.66 195.324 375.66 189.36C375.66 183.396 369.09 183.397 369.09 177.433C369.09 171.469 375.66 171.469 375.66 165.502C375.66 159.536 369.09 159.539 369.09 153.575C369.09 147.611 375.66 147.611 375.66 141.648C375.66 135.684 369.09 135.684 369.09 129.72C369.09 123.757 375.66 123.754 375.66 117.79C375.66 111.826 369.09 111.826 369.09 105.863C369.09 99.8989 375.66 99.8989 375.66 93.9352C375.66 87.9715 369.09 87.9715 369.09 82.0079C369.09 76.0442 375.66 76.0442 375.66 70.0805C375.66 64.1168 369.09 64.1168 369.09 58.1531C369.09 52.1895 375.66 52.1895 375.66 46.2258C375.66 40.2621 369.09 40.2621 369.09 34.2984C369.09 28.3348 375.66 28.3317 375.66 22.368C375.66 16.4044 369.09 16.4044 369.09 10.4407C369.09 4.477 375.66 4.477 375.66 -1.48972C375.66 -7.45644 369.09 -7.4534 369.09 -13.4171C369.09 -19.3808 375.66 -19.3808 375.66 -25.3444C375.66 -31.3081 369.09 -31.3111 369.09 -37.2748C369.09 -43.2385 375.66 -43.2385 375.66 -49.2022C375.66 -55.1659 369.09 -55.1689 369.09 -61.1326C369.09 -67.0963 375.66 -67.0963 375.66 -73.063C375.66 -79.0297 369.09 -79.0267 369.09 -84.9903C369.09 -90.954 375.66 -90.9541 375.66 -96.9177C375.66 -102.881 369.09 -102.884 369.09 -108.848C369.09 -114.812 375.66 -114.815 375.66 -120.779C375.66 -126.742 369.09 -126.742 369.09 -132.709C369.09 -138.676 375.66 -138.673 375.66 -144.639C375.66 -150.606 369.09 -150.606 369.09 -156.57" stroke="#FF9140" stroke-width="0.5" stroke-miterlimit="10"/>
</g>
<defs>
<clipPath id="clip0_1395_17037">
<rect width="406" height="408" fill="white" transform="translate(-8 249) rotate(-90)"/>
</clipPath>
</defs>
</svg>
