<svg width="88" height="88" viewBox="0 0 88 88" fill="none" xmlns="http://www.w3.org/2000/svg">
<path d="M38 3.4641C41.7128 1.32051 46.2872 1.32051 50 3.46411L76.1051 18.5359C79.8179 20.6795 82.1051 24.641 82.1051 28.9282V59.0718C82.1051 63.359 79.8179 67.3205 76.1051 69.4641L50 84.5359C46.2872 86.6795 41.7128 86.6795 38 84.5359L11.8949 69.4641C8.18207 67.3205 5.89488 63.359 5.89488 59.0718V28.9282C5.89488 24.641 8.18207 20.6795 11.8949 18.5359L38 3.4641Z" fill="url(#paint0_linear_415_45903)"/>
<path d="M38.0001 78.5354C41.7129 80.679 46.2873 80.679 50.0001 78.5354L70.909 66.4636C74.6218 64.32 76.909 60.3585 76.909 56.0713V31.9277C76.909 27.6405 74.6218 23.679 70.909 21.5354L50.0001 9.46361C46.2873 7.32001 41.7129 7.32001 38.0001 9.46361L17.0911 21.5354C13.3783 23.679 11.0911 27.6405 11.0911 31.9277V56.0713C11.0911 60.3585 13.3783 64.32 17.0911 66.4636L38.0001 78.5354Z" fill="url(#paint1_linear_415_45903)"/>
<path d="M38.25 11.4641C41.9628 9.32051 46.5372 9.32051 50.25 11.4641L69.4269 22.5359C73.1397 24.6795 75.4269 28.641 75.4269 32.9282V55.0718C75.4269 59.359 73.1397 63.3205 69.4269 65.4641L50.25 76.5359C46.5372 78.6795 41.9628 78.6795 38.25 76.5359L19.0731 65.4641C15.3603 63.3205 13.0731 59.359 13.0731 55.0718V32.9282C13.0731 28.641 15.3603 24.6795 19.0731 22.5359L38.25 11.4641Z" fill="url(#paint2_linear_415_45903)"/>
<path opacity="0.7" d="M25.8097 59.2505L25.8157 50.5745H27.2917V57.9905H31.2097V59.2505H25.8097ZM35.0915 59.3705C34.4955 59.3705 33.9695 59.2445 33.5135 58.9925C33.0615 58.7365 32.7075 58.3725 32.4515 57.9005C32.1995 57.4285 32.0735 56.8665 32.0735 56.2145C32.0735 55.5785 32.1875 55.0145 32.4155 54.5225C32.6475 54.0265 32.9815 53.6365 33.4175 53.3525C33.8575 53.0685 34.3875 52.9265 35.0075 52.9265C35.6195 52.9265 36.1335 53.0565 36.5495 53.3165C36.9655 53.5765 37.2815 53.9405 37.4975 54.4085C37.7135 54.8725 37.8215 55.4165 37.8215 56.0405V56.4845H33.5315C33.5275 56.8365 33.5835 57.1485 33.6995 57.4205C33.8155 57.6925 33.9875 57.9065 34.2155 58.0625C34.4435 58.2145 34.7255 58.2905 35.0615 58.2905C35.4055 58.2905 35.7035 58.2145 35.9555 58.0625C36.2115 57.9065 36.3815 57.6705 36.4655 57.3545H37.7975C37.7255 57.7865 37.5535 58.1525 37.2815 58.4525C37.0135 58.7525 36.6855 58.9805 36.2975 59.1365C35.9135 59.2925 35.5115 59.3705 35.0915 59.3705ZM33.5255 55.5785H36.4415C36.4415 55.2785 36.3875 55.0085 36.2795 54.7685C36.1755 54.5245 36.0175 54.3325 35.8055 54.1925C35.5935 54.0485 35.3255 53.9765 35.0015 53.9765C34.6815 53.9765 34.4115 54.0545 34.1915 54.2105C33.9715 54.3665 33.8055 54.5685 33.6935 54.8165C33.5815 55.0605 33.5255 55.3145 33.5255 55.5785ZM40.7443 59.2505L38.4523 53.0465H39.7903L41.2783 57.3905H41.3563L42.8383 53.0465H44.1823L41.8963 59.2505H40.7443ZM47.8063 59.3705C47.2103 59.3705 46.6843 59.2445 46.2283 58.9925C45.7763 58.7365 45.4223 58.3725 45.1663 57.9005C44.9143 57.4285 44.7883 56.8665 44.7883 56.2145C44.7883 55.5785 44.9023 55.0145 45.1303 54.5225C45.3623 54.0265 45.6963 53.6365 46.1323 53.3525C46.5723 53.0685 47.1023 52.9265 47.7223 52.9265C48.3343 52.9265 48.8483 53.0565 49.2643 53.3165C49.6803 53.5765 49.9963 53.9405 50.2123 54.4085C50.4283 54.8725 50.5363 55.4165 50.5363 56.0405V56.4845H46.2463C46.2423 56.8365 46.2983 57.1485 46.4143 57.4205C46.5303 57.6925 46.7023 57.9065 46.9303 58.0625C47.1583 58.2145 47.4403 58.2905 47.7763 58.2905C48.1203 58.2905 48.4183 58.2145 48.6703 58.0625C48.9263 57.9065 49.0963 57.6705 49.1803 57.3545H50.5123C50.4403 57.7865 50.2683 58.1525 49.9963 58.4525C49.7283 58.7525 49.4003 58.9805 49.0123 59.1365C48.6283 59.2925 48.2263 59.3705 47.8063 59.3705ZM46.2403 55.5785H49.1563C49.1563 55.2785 49.1023 55.0085 48.9943 54.7685C48.8903 54.5245 48.7323 54.3325 48.5203 54.1925C48.3083 54.0485 48.0403 53.9765 47.7163 53.9765C47.3963 53.9765 47.1263 54.0545 46.9063 54.2105C46.6863 54.3665 46.5203 54.5685 46.4083 54.8165C46.2963 55.0605 46.2403 55.3145 46.2403 55.5785ZM53.7195 59.3405C53.3195 59.3405 52.9995 59.2905 52.7595 59.1905C52.5195 59.0905 52.3395 58.9565 52.2195 58.7885C52.0995 58.6205 52.0215 58.4325 51.9855 58.2245C51.9495 58.0125 51.9315 57.7965 51.9315 57.5765V50.3345H53.3595V57.4085C53.3595 57.6765 53.4135 57.8845 53.5215 58.0325C53.6335 58.1805 53.8135 58.2665 54.0615 58.2905L54.3735 58.3025V59.2205C54.2655 59.2525 54.1555 59.2805 54.0435 59.3045C53.9315 59.3285 53.8235 59.3405 53.7195 59.3405ZM59.8549 59.2505V52.5665H58.2469V51.6965C58.7549 51.6965 59.1569 51.6545 59.4529 51.5705C59.7529 51.4825 59.9709 51.3545 60.1069 51.1865C60.2469 51.0185 60.3269 50.8145 60.3469 50.5745H61.3429V59.2505H59.8549Z" fill="white"/>
<path opacity="0.6" d="M54.8759 38.7879L50.3124 27.5189C50.2304 27.3145 50.0198 27.1885 49.795 27.1919C49.5667 27.1987 49.3705 27.3452 49.3027 27.5529L46.9192 34.9669C46.5196 36.2167 45.8702 37.3542 44.996 38.3452C44.8105 38.5529 44.8319 38.8663 45.0424 39.0502C46.7087 40.5077 48.7282 41.2502 50.9832 41.2502C51.8931 41.2502 52.8457 41.1276 53.8234 40.8858C54.2658 40.7768 54.6226 40.5009 54.826 40.1093C55.0401 39.7006 55.0579 39.2204 54.8724 38.7879H54.8759ZM53.8697 39.6495C53.8234 39.7381 53.7306 39.8505 53.5558 39.8947C50.7013 40.6031 48.1502 40.157 46.145 38.6074C46.9478 37.6062 47.5508 36.4823 47.9432 35.2631L49.8735 29.2591L53.8804 39.1557C53.8804 39.1557 53.8804 39.1625 53.884 39.1659C53.9518 39.326 53.9482 39.5031 53.8733 39.6495H53.8697ZM48.9994 26.0545C49.4347 25.9932 49.9378 25.9012 50.316 25.765C51.0795 25.4857 51.761 25.0873 52.3426 24.5764C52.9349 24.0554 53.3952 23.4526 53.7092 22.7885C53.9839 22.213 54.1445 21.6034 54.1837 20.9733C54.198 20.7622 54.1195 20.551 53.9661 20.3978C53.7984 20.2275 53.5486 20.1287 53.306 20.1526H48.4856C47.8362 19.3863 46.9763 18.8346 45.9844 18.5486C43.2477 17.7551 40.3469 19.2263 39.512 21.8281L33.9922 39.0263C33.8495 39.4759 33.9102 39.956 34.1635 40.3477C34.4026 40.7189 34.7843 40.9641 35.2303 41.0356C35.7798 41.1242 36.3293 41.1684 36.8716 41.1684C41.1176 41.1684 44.996 38.5223 46.2698 34.5412L48.9958 26.0579L48.9994 26.0545ZM35.4123 40.0276C35.2339 39.9969 35.1304 39.8947 35.0769 39.8096C34.9877 39.67 34.9663 39.4929 35.0163 39.326L40.5396 22.1278C41.0784 20.4421 42.7161 19.3557 44.4787 19.3557C44.8747 19.3557 45.2779 19.4102 45.6775 19.526C46.5339 19.7746 47.2653 20.2718 47.7934 20.9665C47.8933 21.0993 48.0539 21.1777 48.2251 21.1777H53.0883C53.0348 21.5897 52.9135 21.9882 52.7315 22.3696C52.4782 22.9111 52.1 23.4015 51.6147 23.8272C51.1331 24.2495 50.5657 24.5798 49.9306 24.8114C49.6309 24.9204 49.1314 25.0192 48.5213 25.0839C48.3107 25.1077 48.1323 25.2473 48.0717 25.4415L45.2458 34.2415C43.9613 38.2396 39.7332 40.7257 35.4052 40.0276H35.4123ZM44.7249 20.1492C42.9801 20.1492 41.56 21.5012 41.56 23.1631C41.56 24.825 42.9801 26.1771 44.7249 26.1771C46.4696 26.1771 47.8398 24.8897 47.8862 23.2312V23.0814C47.8398 21.4365 46.4518 20.1492 44.7249 20.1492ZM44.7249 25.1554C43.5688 25.1554 42.6304 24.2631 42.6304 23.1631C42.6304 22.0631 43.5688 21.1708 44.7249 21.1708C45.8809 21.1708 46.7872 22.0222 46.8157 23.095V23.2176C46.7872 24.304 45.8666 25.1554 44.7249 25.1554ZM46.1878 23.1699C46.1878 23.9396 45.5313 24.5628 44.7249 24.5628C43.9149 24.5628 43.262 23.9362 43.262 23.1665C43.262 23.0099 43.287 22.8566 43.3405 22.7136C43.4761 22.8021 43.6331 22.8668 43.8079 22.8941C44.4287 22.9894 45.0139 22.5876 45.1138 21.995C45.1245 21.9405 45.1281 21.886 45.1281 21.8349C45.7418 22.0018 46.1878 22.5399 46.1878 23.1733V23.1699Z" fill="white"/>
<path d="M44.4583 65.0835L45.627 67.6L48.3815 67.9338L46.3493 69.8229L46.883 72.5457L44.4583 71.1967L42.0337 72.5457L42.5674 69.8229L40.5352 67.9338L43.2897 67.6L44.4583 65.0835Z" fill="white" fill-opacity="0.6"/>
<defs>
<linearGradient id="paint0_linear_415_45903" x1="44.1733" y1="133.375" x2="44.0486" y2="5.95846" gradientUnits="userSpaceOnUse">
<stop offset="0.16" stop-color="#FF6B00"/>
<stop offset="0.95" stop-color="#FFA86A"/>
</linearGradient>
<linearGradient id="paint1_linear_415_45903" x1="73.7917" y1="-14.6668" x2="12.2768" y2="85.648" gradientUnits="userSpaceOnUse">
<stop offset="0.16" stop-color="#FF6B00"/>
<stop offset="0.95" stop-color="#FFCAA5"/>
</linearGradient>
<linearGradient id="paint2_linear_415_45903" x1="-7.25" y1="82.5" x2="54.6746" y2="5.43939" gradientUnits="userSpaceOnUse">
<stop offset="0.16" stop-color="#DD5D00"/>
<stop offset="0.95" stop-color="#FFA86A"/>
</linearGradient>
</defs>
</svg>
