<svg width="90" height="90" viewBox="0 0 90 90" fill="none" xmlns="http://www.w3.org/2000/svg">
<g clip-path="url(#clip0_395_51126)">
<path d="M79.0251 103.187C82.4639 100.123 82.9154 95.0126 80.0241 91.7563L54.6173 63.1893C51.7261 59.9426 46.5967 59.7793 43.1483 62.8435C39.7095 65.9077 39.258 71.0179 42.1493 74.2742L67.5561 102.841C70.4473 106.088 75.5767 106.251 79.0251 103.187Z" fill="#FFA86A"/>
<path d="M40.4626 48.8599C52.485 45.9202 59.8481 33.7911 56.9084 21.7686C53.9688 9.74621 41.8397 2.38317 29.8172 5.32281C17.7948 8.26246 10.4318 20.3916 13.3714 32.414C16.3111 44.4365 28.4402 51.7995 40.4626 48.8599Z" fill="#18191A"/>
<path d="M47.5189 42.8349C50.2138 42.8349 52.3985 40.6503 52.3985 37.9553C52.3985 35.2604 50.2138 33.0757 47.5189 33.0757C44.8239 33.0757 42.6392 35.2604 42.6392 37.9553C42.6392 40.6503 44.8239 42.8349 47.5189 42.8349Z" fill="#FF6B00"/>
<path d="M46.9042 37.9556H50.4679V26.9476H46.9042V37.9556Z" fill="#18191A"/>
<path d="M39.7479 41.1157H26.5211V60.836H39.7479V41.1157Z" fill="#A24400"/>
<path d="M39.7383 49.3667H32.2555" stroke="#461D00" stroke-width="0.95" stroke-miterlimit="10"/>
<path d="M32.4381 49.0112H40.0937C44.5924 49.0112 48.2393 45.3644 48.2393 40.8657V27.8597C48.2393 23.3611 44.5924 19.7142 40.0937 19.7142L32.4381 19.7142C27.9394 19.7142 24.2926 23.3611 24.2926 27.8597L24.2926 40.8657C24.2926 45.3644 27.9394 49.0112 32.4381 49.0112Z" fill="#A24400"/>
<mask id="mask0_395_51126" style="mask-type:luminance" maskUnits="userSpaceOnUse" x="27" y="31" width="8" height="5">
<path d="M34.4937 33.7767C34.4937 33.7767 32.8511 35.9571 30.834 35.9571C28.8168 35.9571 27.1743 33.7767 27.1743 33.7767C27.1743 33.7767 28.8168 31.5962 30.834 31.5962C32.8511 31.5962 34.4937 33.7767 34.4937 33.7767Z" fill="white"/>
</mask>
<g mask="url(#mask0_395_51126)">
<path d="M34.4937 33.7767C34.4937 33.7767 32.8511 35.9571 30.834 35.9571C28.8168 35.9571 27.1743 33.7767 27.1743 33.7767C27.1743 33.7767 28.8168 31.5962 30.834 31.5962C32.8511 31.5962 34.4937 33.7767 34.4937 33.7767Z" fill="white"/>
<path d="M33.7798 33.0221C34.068 34.924 32.4639 36.5281 30.562 36.24C29.3805 36.0575 28.4103 35.0969 28.2278 33.9058C27.9396 32.0039 29.5438 30.3998 31.4457 30.6879C32.6272 30.8705 33.5973 31.831 33.7798 33.0221Z" fill="#222425"/>
</g>
<mask id="mask1_395_51126" style="mask-type:luminance" maskUnits="userSpaceOnUse" x="39" y="31" width="8" height="5">
<path d="M46.9137 33.7767C46.9137 33.7767 45.2712 35.9571 43.254 35.9571C41.2368 35.9571 39.5943 33.7767 39.5943 33.7767C39.5943 33.7767 41.2368 31.5962 43.254 31.5962C45.2712 31.5962 46.9137 33.7767 46.9137 33.7767Z" fill="white"/>
</mask>
<g mask="url(#mask1_395_51126)">
<path d="M46.9138 33.7767C46.9138 33.7767 45.2712 35.9571 43.2541 35.9571C41.2369 35.9571 39.5943 33.7767 39.5943 33.7767C39.5943 33.7767 41.2369 31.5962 43.2541 31.5962C45.2712 31.5962 46.9138 33.7767 46.9138 33.7767Z" fill="white"/>
<path d="M46.2382 33.464C46.2382 35.0105 44.9799 36.2688 43.4334 36.2688C41.8869 36.2688 40.6286 35.0105 40.6286 33.464C40.6286 31.9175 41.8869 30.6592 43.4334 30.6592C44.9799 30.6592 46.2382 31.9175 46.2382 33.464Z" fill="#222425"/>
</g>
<path d="M37.3273 19.7046L38.9315 39.3576H34.4265" stroke="#461D00" stroke-width="0.95" stroke-miterlimit="10"/>
<path d="M33.1297 41.1157C33.6772 46.8695 37.3273 42.4317 37.3273 42.4317L33.1297 41.1157Z" fill="white"/>
<path d="M31.0644 25.0644C32.6109 25.1412 33.6003 25.9481 32.2363 26.5341C30.8723 27.12 28.4997 27.1584 28.8071 26.1114C29.0184 25.3718 30.392 25.026 31.074 25.0644H31.0644Z" fill="#18191A"/>
<path d="M44.4066 25.0644C45.9531 25.1412 46.9424 25.9481 45.5784 26.5341C44.2144 27.12 41.8419 27.1584 42.1493 26.1114C42.3606 25.3718 43.7342 25.026 44.4162 25.0644H44.4066Z" fill="#18191A"/>
<path d="M22.2945 42.8349C24.9895 42.8349 27.1742 40.6503 27.1742 37.9553C27.1742 35.2604 24.9895 33.0757 22.2945 33.0757C19.5996 33.0757 17.4149 35.2604 17.4149 37.9553C17.4149 40.6503 19.5996 42.8349 22.2945 42.8349Z" fill="#A24400"/>
<path d="M57.0764 129.564H8.03033V70.0765C8.03033 64.9759 12.1703 60.8359 17.2709 60.8359H44.9734C50.9192 60.8359 55.5491 66.0133 54.8863 71.9208L50.7944 108.297L57.086 129.554L57.0764 129.564Z" fill="#FF6B00"/>
<path d="M25.8583 37.9551V25.0644L34.4265 18.4077H23.3417V37.9551H25.8583Z" fill="#18191A"/>
<path d="M0.432251 121.918H17.4245V60.8359H17.876C8.24159 60.8359 0.432251 68.6453 0.432251 78.2797V121.918Z" fill="#FFA86A"/>
<path d="M83.3344 102.982C84.1672 98.9855 81.6178 95.0669 77.6218 94.2341L42.5306 86.8679C38.5346 86.0351 34.6159 88.5845 33.7831 92.5805C32.9504 96.5765 36.5329 97.1155 40.5254 97.9614L74.5918 108.702C78.5878 109.535 82.5065 106.986 83.3392 102.99L83.3344 102.982Z" fill="#A24400"/>
</g>
<defs>
<clipPath id="clip0_395_51126">
<path d="M0 24C0 12.6863 0 7.02944 3.51472 3.51472C7.02944 0 12.6863 0 24 0H66C77.3137 0 82.9706 0 86.4853 3.51472C90 7.02944 90 12.6863 90 24V66C90 77.3137 90 82.9706 86.4853 86.4853C82.9706 90 77.3137 90 66 90H24C12.6863 90 7.02944 90 3.51472 86.4853C0 82.9706 0 77.3137 0 66V24Z" fill="white"/>
</clipPath>
</defs>
</svg>
