<svg width="24" height="24" viewBox="0 0 24 24" fill="none" xmlns="http://www.w3.org/2000/svg">
<path d="M11.2373 3H12.7627M7.85119 3.97696L9.26049 3.39322M5.09673 6.17536L6.17536 5.09673M3.39322 9.26049L3.97696 7.85119M3 12.7627V11.2373M3.97696 16.1488L3.39322 14.7395M6.17536 18.9033L5.09673 17.8246M9.26049 20.6068L7.85119 20.023M12.7627 21H11.2373M16.1488 20.023L14.7395 20.6068M18.9033 17.8246L17.8246 18.9033M20.6068 14.7395L20.023 16.1488M21 11.2373V12.7627M20.023 7.85119L20.6068 9.26049M17.8246 5.09673L18.9033 6.17536M14.7395 3.39322L16.1488 3.97696M12 17.9492C8.71439 17.9492 6.05085 15.2856 6.05085 12C6.05085 8.71439 8.71439 6.05085 12 6.05085C15.2856 6.05085 17.9492 8.71439 17.9492 12C17.9492 15.2856 15.2856 17.9492 12 17.9492Z" stroke="#0B0C0C" stroke-width="1.25" stroke-miterlimit="10"/>
</svg>
