<svg width="33" height="33" viewBox="0 0 33 33" fill="none" xmlns="http://www.w3.org/2000/svg">
<path d="M23.4709 29.7244C22.5198 29.7035 21.1908 28.9721 21.191 28.0773V23.8933C21.191 21.1442 18.9624 18.9156 16.2133 18.9156C13.4641 18.9156 11.2355 21.1442 11.2355 23.8933V28.0645C11.2355 28.9813 10.5244 29.7244 8.95561 29.7244H7.6414C4.91353 29.7244 2.70215 27.6447 2.70215 25.0791V13.3049C2.71265 12.2947 3.21736 11.3453 4.07036 10.7313L13.3879 3.62814C15.0274 2.39359 17.3581 2.39359 18.9976 3.62814L28.3562 10.7184C29.2059 11.3349 29.7098 12.2827 29.7244 13.292V25.0791C29.7244 27.6447 27.513 29.7244 24.7851 29.7244H23.4709Z" fill="white" stroke="white" stroke-width="1.52" stroke-linecap="round" stroke-linejoin="round"/>
</svg>
