<svg width="32" height="32" viewBox="0 0 32 32" fill="none" xmlns="http://www.w3.org/2000/svg">
<path d="M23.162 29.3333C22.2234 29.3126 20.9119 28.5909 20.9121 27.7079V23.5789C20.9121 20.8659 18.7128 18.6666 15.9998 18.6666C13.2869 18.6666 11.0876 20.8659 11.0876 23.5789V27.6952C11.0876 28.5999 10.3858 29.3333 8.83768 29.3333H7.54077C4.84879 29.3333 2.6665 27.2809 2.6665 24.7491V13.1298C2.67687 12.1329 3.17494 11.196 4.01671 10.59L13.2117 3.58038C14.8296 2.36206 17.1296 2.36206 18.7475 3.58038L27.983 10.5774C28.8216 11.1858 29.3188 12.1211 29.3332 13.1171V24.7491C29.3332 27.2809 27.1509 29.3333 24.4589 29.3333H23.162Z" stroke="white" stroke-width="1.5" stroke-linecap="round" stroke-linejoin="round"/>
</svg>
