<svg width="24" height="24" viewBox="0 0 24 24" fill="none" xmlns="http://www.w3.org/2000/svg">
<path d="M0 12C0 8.27247 0 6.4087 0.608964 4.93853C1.42092 2.97831 2.97831 1.42092 4.93853 0.608964C6.4087 0 8.27247 0 12 0C15.7275 0 17.5913 0 19.0615 0.608964C21.0217 1.42092 22.5791 2.97831 23.391 4.93853C24 6.4087 24 8.27247 24 12C24 15.7275 24 17.5913 23.391 19.0615C22.5791 21.0217 21.0217 22.5791 19.0615 23.391C17.5913 24 15.7275 24 12 24C8.27247 24 6.4087 24 4.93853 23.391C2.97831 22.5791 1.42092 21.0217 0.608964 19.0615C0 17.5913 0 15.7275 0 12Z" fill="white"/>
<path fill-rule="evenodd" clip-rule="evenodd" d="M13.8628 7.18477C14.4818 7.43113 14.6712 8.28911 14.9243 8.56488C15.1774 8.84066 15.5396 8.93443 15.74 8.93443C16.8051 8.93443 17.6686 9.79791 17.6686 10.8624V14.4138C17.6686 15.8417 16.5103 17 15.0824 17H8.91723C7.48871 17 6.33105 15.8417 6.33105 14.4138V10.8624C6.33105 9.79791 7.19454 8.93443 8.25966 8.93443C8.45944 8.93443 8.82163 8.84066 9.07535 8.56488C9.32845 8.28911 9.5172 7.43113 10.1362 7.18477C10.7557 6.93841 13.2439 6.93841 13.8628 7.18477Z" stroke="#FF7714" stroke-width="1.25" stroke-linecap="round" stroke-linejoin="round"/>
<path fill-rule="evenodd" clip-rule="evenodd" d="M13.9472 12.7473C13.9472 11.6712 13.0751 10.7991 11.999 10.7991C10.9229 10.7991 10.0508 11.6712 10.0508 12.7473C10.0508 13.8235 10.9229 14.6956 11.999 14.6956C13.0751 14.6956 13.9472 13.8235 13.9472 12.7473Z" stroke="#FF7714" stroke-width="1.25" stroke-linecap="round" stroke-linejoin="round"/>
</svg>
