<svg width="24" height="24" viewBox="0 0 24 24" fill="none" xmlns="http://www.w3.org/2000/svg">
<path d="M18.7196 12C18.7196 15.7114 15.711 18.72 11.9996 18.72M18.7196 12C18.7196 8.28865 15.711 5.28001 11.9996 5.28001M18.7196 12H20.3996M11.9996 18.72C8.28826 18.72 5.27961 15.7114 5.27961 12M11.9996 18.72V20.4M5.27961 12C5.27961 8.28865 8.28826 5.28001 11.9996 5.28001M5.27961 12H3.59961M11.9996 5.28001V3.60001M14.5196 12C14.5196 13.3918 13.3914 14.52 11.9996 14.52C10.6079 14.52 9.47961 13.3918 9.47961 12C9.47961 10.6082 10.6079 9.48001 11.9996 9.48001C13.3914 9.48001 14.5196 10.6082 14.5196 12Z" stroke="#0B0C0C" stroke-width="1.25" stroke-linecap="round" stroke-linejoin="round"/>
</svg>
