<svg width="20" height="20" viewBox="0 0 20 20" fill="none" xmlns="http://www.w3.org/2000/svg">
<path d="M16.7201 9.99998C16.7201 13.7113 13.7115 16.72 10.0001 16.72M16.7201 9.99998C16.7201 6.28862 13.7115 3.27998 10.0001 3.27998M16.7201 9.99998H18.4001M10.0001 16.72C6.28874 16.72 3.2801 13.7113 3.2801 9.99998M10.0001 16.72V18.4M3.2801 9.99998C3.2801 6.28862 6.28874 3.27998 10.0001 3.27998M3.2801 9.99998H1.6001M10.0001 3.27998V1.59998M12.5201 9.99998C12.5201 11.3917 11.3919 12.52 10.0001 12.52C8.60834 12.52 7.4801 11.3917 7.4801 9.99998C7.4801 8.60822 8.60834 7.47998 10.0001 7.47998C11.3919 7.47998 12.5201 8.60822 12.5201 9.99998Z" stroke="#0B0C0C" stroke-width="1.25" stroke-linecap="round" stroke-linejoin="round"/>
</svg>
