<svg width="32" height="32" viewBox="0 0 32 32" fill="none" xmlns="http://www.w3.org/2000/svg">
<ellipse cx="16" cy="26.5" rx="13" ry="2.5" fill="#DBDDDE"/>
<path d="M16 26C16.5915 26 17.183 25.7834 17.6601 25.3503C20.5029 22.7696 26 17.0383 26 11.3069C26 5.61453 21.5229 1 16 1C10.4771 1 6 5.61453 6 11.3069C6 17.0383 11.4971 22.7696 14.3399 25.3504C14.817 25.7835 15.4085 26 16 26Z" fill="#636C6E"/>
<path d="M16 16C18.7614 16 21 13.7614 21 11C21 8.23858 18.7614 6 16 6C13.2386 6 11 8.23858 11 11C11 13.7614 13.2386 16 16 16Z" fill="white"/>
</svg>
